<svg width="657" height="440" viewBox="0 0 657 440" fill="none" xmlns="http://www.w3.org/2000/svg">
<path d="M53.62 163H29.82V108.54L21 119.18L5.74 107.56L39.34 67.1H53.62V163Z" fill="#FF6C00"/>
<path d="M633.42 222.5L647 222.5L647 246.3L633.42 246.3L633.42 290.26L619.14 290.26L551.1 236.78L551.1 222.5L610.88 222.5L610.88 213.82L633.42 213.82L633.42 222.5ZM589.18 246.3L610.88 262.82L610.88 246.3L589.18 246.3Z" fill="#FF6C00"/>
<path d="M199 297.18L199 222.14L213.42 222.14L245.34 261.06C251.22 268.62 256.54 272.4 261.3 272.4C265.127 272.4 268.067 271.233 270.12 268.9C272.267 266.66 273.433 263.627 273.62 259.8L273.62 259.1C273.62 254.527 270.4 247.947 263.96 239.36L278.24 223.96C290.093 236.933 296.02 249.347 296.02 261.2L296.02 262.04C295.927 269.6 294.387 275.993 291.4 281.22C288.413 286.447 284.727 290.18 280.34 292.42C276.047 294.66 271.38 295.78 266.34 295.78C259.247 295.78 252.62 293.54 246.46 289.06C240.3 284.58 233.767 277.86 226.86 268.9L221.4 262.32L221.4 297.18L199 297.18Z" fill="#FF6C00"/>
<path d="M511.94 51.24L489.12 74.9C490.427 74.9 491.78 75.04 493.18 75.32C500.647 76.72 506.433 79.9867 510.54 85.12C514.647 90.16 516.7 96.18 516.7 103.18C516.7 107.193 516 110.973 514.6 114.52C513.293 118.067 511.24 121.333 508.44 124.32C505.64 127.213 501.813 129.547 496.96 131.32C492.2 133 486.647 133.887 480.3 133.98H479.32C465.32 133.98 451.927 128.427 439.14 117.32L454.68 103.04C463.547 108.64 471.573 111.44 478.76 111.44H479.88C484.173 111.44 487.627 110.273 490.24 107.94C492.947 105.607 494.3 102.807 494.3 99.54C494.3 91.3267 489.167 87.22 478.9 87.22C476.007 87.22 471.807 88.4333 466.3 90.86L455.24 82.46L477.64 59.5L447.96 59.5V37.1L511.94 37.1V51.24Z" fill="#FF6C00"/>
<path d="M386.76 356.5H347.56V369.94C351.293 366.953 356.847 365.46 364.22 365.46C374.673 365.46 382.607 368.447 388.02 374.42C393.433 380.393 396.14 388.14 396.14 397.66C396.14 401.767 395.44 405.687 394.04 409.42C392.64 413.153 390.54 416.7 387.74 420.06C384.94 423.327 381.02 425.94 375.98 427.9C371.033 429.86 365.34 430.887 358.9 430.98H358.06C350.5 430.98 343.64 429.533 337.48 426.64C331.413 423.747 325.3 419.64 319.14 414.32L334.68 400.04C340 403.4 344.293 405.64 347.56 406.76C350.92 407.88 354.327 408.44 357.78 408.44H358.9C363.007 408.44 366.46 407.32 369.26 405.08C372.153 402.84 373.6 399.76 373.6 395.84C373.6 391.64 372.153 388.42 369.26 386.18C366.46 383.847 362.54 382.68 357.5 382.68C355.167 382.68 352.787 383.053 350.36 383.8C347.933 384.453 346.02 385.153 344.62 385.9C343.313 386.553 341.82 387.393 340.14 388.42C338.46 389.447 337.573 389.96 337.48 389.96L326.56 381.56V334.1H386.76V356.5Z" fill="#FF6C00"/>
</svg>
