<svg width="320" height="748" viewBox="0 0 320 748" fill="none" xmlns="http://www.w3.org/2000/svg">
<path d="M31.62 133H7.82V78.54L-0.999999 89.18L-16.26 77.56L17.34 37.1H31.62V133Z" fill="#FF6C00"/>
<path d="M177 258.18L177 183.14L191.42 183.14L223.34 222.06C229.22 229.62 234.54 233.4 239.3 233.4C243.127 233.4 246.067 232.233 248.12 229.9C250.267 227.66 251.433 224.627 251.62 220.8L251.62 220.1C251.62 215.527 248.4 208.947 241.96 200.36L256.24 184.96C268.093 197.933 274.02 210.347 274.02 222.2L274.02 223.04C273.927 230.6 272.387 236.993 269.4 242.22C266.413 247.447 262.727 251.18 258.34 253.42C254.047 255.66 249.38 256.78 244.34 256.78C237.247 256.78 230.62 254.54 224.46 250.06C218.3 245.58 211.767 238.86 204.86 229.9L199.4 223.32L199.4 258.18L177 258.18Z" fill="#FF6C00"/>
<path d="M189.94 381.24L167.12 404.9C168.427 404.9 169.78 405.04 171.18 405.32C178.647 406.72 184.433 409.987 188.54 415.12C192.647 420.16 194.7 426.18 194.7 433.18C194.7 437.193 194 440.973 192.6 444.52C191.293 448.067 189.24 451.333 186.44 454.32C183.64 457.213 179.813 459.547 174.96 461.32C170.2 463 164.647 463.887 158.3 463.98H157.32C143.32 463.98 129.927 458.427 117.14 447.32L132.68 433.04C141.547 438.64 149.573 441.44 156.76 441.44H157.88C162.173 441.44 165.627 440.273 168.24 437.94C170.947 435.607 172.3 432.807 172.3 429.54C172.3 421.327 167.167 417.22 156.9 417.22C154.007 417.22 149.807 418.433 144.3 420.86L133.24 412.46L155.64 389.5H125.96L125.96 367.1H189.94V381.24Z" fill="#FF6C00"/>
<path d="M311.42 540.5L325 540.5L325 564.3L311.42 564.3L311.42 608.26L297.14 608.26L229.1 554.78L229.1 540.5L288.88 540.5L288.88 531.82L311.42 531.82L311.42 540.5ZM267.18 564.3L288.88 580.82L288.88 564.3L267.18 564.3Z" fill="#FF6C00"/>
<path d="M64.76 664.5H25.56L25.56 677.94C29.2933 674.953 34.8467 673.46 42.22 673.46C52.6733 673.46 60.6067 676.447 66.02 682.42C71.4333 688.393 74.14 696.14 74.14 705.66C74.14 709.767 73.44 713.687 72.04 717.42C70.64 721.153 68.54 724.7 65.74 728.06C62.94 731.327 59.02 733.94 53.98 735.9C49.0333 737.86 43.34 738.887 36.9 738.98H36.06C28.5 738.98 21.64 737.533 15.48 734.64C9.41333 731.747 3.3 727.64 -2.86 722.32L12.68 708.04C18 711.4 22.2933 713.64 25.56 714.76C28.92 715.88 32.3267 716.44 35.78 716.44H36.9C41.0067 716.44 44.46 715.32 47.26 713.08C50.1533 710.84 51.6 707.76 51.6 703.84C51.6 699.64 50.1533 696.42 47.26 694.18C44.46 691.847 40.54 690.68 35.5 690.68C33.1667 690.68 30.7867 691.053 28.36 691.8C25.9333 692.453 24.02 693.153 22.62 693.9C21.3133 694.553 19.82 695.393 18.14 696.42C16.46 697.447 15.5733 697.96 15.48 697.96L4.56 689.56L4.56 642.1H64.76L64.76 664.5Z" fill="#FF6C00"/>
</svg>
