<svg width="1280" height="6112" viewBox="0 0 1280 6112" fill="none" xmlns="http://www.w3.org/2000/svg">
<g clip-path="url(#clip0)">
<g opacity="0.2">
<path fill-rule="evenodd" clip-rule="evenodd" d="M59.74 5461.48C64.6616 5461.7 69.0337 5464.27 70.9456 5468.88C73.6219 5475.33 76.0991 5483.53 70.6889 5487.87C64.8924 5492.52 56.6852 5489.6 50.8392 5485.01C45.5848 5480.89 42.6087 5474 44.9891 5467.71C47.0996 5462.13 53.8579 5461.21 59.74 5461.48Z" stroke="#1C1B1B" stroke-dasharray="10 5"/>
<path d="M327.681 5426.69C302.713 5367.38 245.618 5334.31 181.347 5331.46C104.531 5328.05 16.2728 5339.83 -11.2885 5411.64C-42.3741 5492.62 -3.5084 5581.24 65.1092 5634.29C141.453 5693.31 248.632 5730.96 324.329 5671.11C394.981 5615.25 362.632 5509.71 327.681 5426.69Z" stroke="#1C1B1B" stroke-dasharray="10 5"/>
<path d="M295.589 5431.96C273.503 5379.49 222.999 5350.24 166.146 5347.71C98.1972 5344.7 20.1262 5355.12 -4.25383 5418.65C-31.7513 5490.3 2.62825 5568.69 63.3254 5615.63C130.857 5667.84 225.664 5701.15 292.624 5648.21C355.121 5598.78 326.505 5505.41 295.589 5431.96Z" stroke="#1C1B1B" stroke-dasharray="10 5"/>
<path d="M263.497 5437.23C244.293 5391.6 200.379 5366.16 150.945 5363.96C91.863 5361.34 23.9795 5370.41 2.78086 5425.66C-21.1284 5487.97 8.76491 5556.15 61.5417 5596.97C120.261 5642.38 202.697 5671.35 260.919 5625.3C315.261 5582.32 290.379 5501.12 263.497 5437.23Z" stroke="#1C1B1B" stroke-dasharray="10 5"/>
<path d="M231.405 5442.51C215.083 5403.71 177.76 5382.08 135.744 5380.22C85.5289 5377.99 27.833 5385.69 9.81568 5432.66C-10.5055 5485.64 14.9017 5543.61 59.7581 5578.31C109.665 5616.92 179.73 5641.55 229.214 5602.4C275.4 5565.86 254.253 5496.82 231.405 5442.51Z" stroke="#1C1B1B" stroke-dasharray="10 5"/>
<path d="M199.314 5447.78C185.873 5415.82 155.14 5398.01 120.543 5396.47C79.1948 5394.63 31.6863 5400.98 16.8504 5439.67C0.117395 5483.31 21.0383 5531.06 57.9743 5559.65C99.0691 5591.45 156.762 5611.74 197.509 5579.49C235.54 5549.39 218.127 5492.52 199.314 5447.78Z" stroke="#1C1B1B" stroke-dasharray="10 5"/>
<path d="M167.221 5453.06C156.663 5427.93 132.52 5413.93 105.342 5412.72C72.8605 5411.28 35.5395 5416.27 23.885 5446.68C10.7401 5480.98 27.1749 5518.52 56.1904 5540.99C88.473 5565.99 133.795 5581.94 165.804 5556.59C195.68 5532.93 182.001 5488.22 167.221 5453.06Z" stroke="#1C1B1B" stroke-dasharray="10 5"/>
<path d="M135.13 5458.33C127.453 5440.05 109.901 5429.85 90.1417 5428.97C66.5263 5427.92 39.3929 5431.56 30.9197 5453.69C21.363 5478.66 33.3115 5505.97 54.4067 5522.33C77.8771 5540.52 110.827 5552.13 134.099 5533.68C155.82 5516.46 145.874 5483.92 135.13 5458.33Z" stroke="#1C1B1B" stroke-dasharray="10 5"/>
<path d="M103.038 5463.6C98.2436 5452.16 87.2812 5445.78 74.9408 5445.23C60.1921 5444.57 43.2462 5446.84 37.9544 5460.7C31.9858 5476.33 39.4482 5493.43 52.6229 5503.67C67.2811 5515.06 87.8598 5522.33 102.394 5510.78C115.959 5500 109.748 5479.63 103.038 5463.6Z" stroke="#1C1B1B" stroke-dasharray="10 5"/>
</g>
<g filter="url(#filter0_f)">
<path fill-rule="evenodd" clip-rule="evenodd" d="M480.002 6000.79C507.798 5999.64 532.49 5986.34 543.288 5962.49C558.404 5929.1 572.394 5886.65 541.839 5864.18C509.101 5840.11 462.749 5855.25 429.733 5878.99C400.057 5900.33 383.249 5935.97 396.692 5968.54C408.612 5997.42 446.782 6002.16 480.002 6000.79Z" fill="url(#paint0_radial)"/>
</g>
<g opacity="0.8" filter="url(#filter1_f)">
<path fill-rule="evenodd" clip-rule="evenodd" d="M96.0701 5604.09C69.6597 5603.52 38.5424 5608.12 22.883 5583.43C7.50372 5559.18 21.7146 5526.84 28.6793 5497.84C35.0097 5471.47 39.5682 5442.42 60.0153 5428.79C81.9294 5414.19 108.852 5417.35 132.075 5428.91C156.796 5441.23 178.698 5461.84 186.411 5491.76C194.747 5524.08 192.59 5561.99 172.751 5586.66C154.053 5609.91 123.468 5604.68 96.0701 5604.09Z" fill="url(#paint1_radial)"/>
<path fill-rule="evenodd" clip-rule="evenodd" d="M96.0701 5604.09C69.6597 5603.52 38.5424 5608.12 22.883 5583.43C7.50372 5559.18 21.7146 5526.84 28.6793 5497.84C35.0097 5471.47 39.5682 5442.42 60.0153 5428.79C81.9294 5414.19 108.852 5417.35 132.075 5428.91C156.796 5441.23 178.698 5461.84 186.411 5491.76C194.747 5524.08 192.59 5561.99 172.751 5586.66C154.053 5609.91 123.468 5604.68 96.0701 5604.09Z" fill="url(#paint2_radial)"/>
</g>
<g filter="url(#filter2_f)">
<path fill-rule="evenodd" clip-rule="evenodd" d="M1370.73 922.437C1367.64 863.217 1331.82 810.61 1267.57 787.604C1177.64 755.401 1063.31 725.594 1002.8 790.693C937.973 860.441 978.758 959.195 1042.69 1029.54C1100.16 1092.76 1196.15 1128.57 1283.87 1099.93C1361.65 1074.54 1374.42 993.215 1370.73 922.437Z" fill="url(#paint3_radial)"/>
</g>
<g opacity="0.7" filter="url(#filter3_f)">
<path fill-rule="evenodd" clip-rule="evenodd" d="M1367.45 2233.66C1364.47 2161.85 1329.93 2098.07 1267.97 2070.17C1181.24 2031.12 1070.99 1994.98 1012.64 2073.92C950.114 2158.49 989.446 2278.23 1051.1 2363.52C1106.52 2440.19 1199.09 2483.61 1283.7 2448.88C1358.71 2418.09 1371.02 2319.48 1367.45 2233.66Z" fill="url(#paint4_radial)"/>
</g>
<g filter="url(#filter4_f)">
<path fill-rule="evenodd" clip-rule="evenodd" d="M238.494 2603.73C328.669 2607.74 408.774 2654.11 443.805 2737.3C492.841 2853.74 538.228 3001.77 439.102 3080.12C332.897 3164.06 182.523 3111.26 75.4107 3028.47C-20.8613 2954.07 -75.3908 2829.78 -31.777 2716.19C6.8922 2615.48 130.721 2598.95 238.494 2603.73Z" fill="url(#paint5_radial)"/>
</g>
<g opacity="0.2">
<path fill-rule="evenodd" clip-rule="evenodd" d="M1198.49 6017.86C1288.67 6013.86 1368.77 5967.49 1403.81 5884.3C1452.84 5767.85 1498.23 5619.82 1399.1 5541.48C1292.9 5457.53 1142.52 5510.34 1035.41 5593.12C939.139 5667.53 884.609 5791.82 928.223 5905.41C966.892 6006.12 1090.72 6022.64 1198.49 6017.86Z" stroke="#1C1B1B" stroke-dasharray="10 5"/>
<path fill-rule="evenodd" clip-rule="evenodd" d="M1024.24 5831.55C1029.37 5831.32 1033.92 5828.64 1035.92 5823.84C1038.71 5817.12 1041.29 5808.57 1035.65 5804.05C1029.61 5799.2 1021.05 5802.25 1014.96 5807.03C1009.49 5811.33 1006.39 5818.5 1008.87 5825.06C1011.07 5830.87 1018.11 5831.83 1024.24 5831.55Z" stroke="#1C1B1B" stroke-dasharray="10 5"/>
<path d="M1370.36 5878.8C1338.33 5954.86 1265.1 5997.27 1182.65 6000.92C1084.12 6005.3 970.908 5990.19 935.554 5898.1C895.68 5794.24 945.534 5680.6 1033.55 5612.57C1131.48 5536.88 1268.96 5488.59 1366.06 5565.35C1456.69 5636.98 1415.19 5772.33 1370.36 5878.8Z" stroke="#1C1B1B" stroke-dasharray="10 5"/>
<path d="M1336.92 5873.31C1307.89 5942.24 1241.52 5980.67 1166.81 5983.99C1077.52 5987.95 974.924 5974.25 942.885 5890.8C906.75 5796.67 951.929 5693.67 1031.69 5632.02C1120.44 5563.41 1245.03 5519.65 1333.02 5589.22C1415.15 5654.14 1377.54 5776.81 1336.92 5873.31Z" stroke="#1C1B1B" stroke-dasharray="10 5"/>
<path d="M1303.47 5867.81C1277.45 5929.62 1217.95 5964.08 1150.97 5967.05C1070.92 5970.6 978.939 5958.32 950.217 5883.49C917.821 5799.09 958.325 5706.75 1029.83 5651.46C1109.4 5589.95 1221.09 5550.71 1299.98 5613.09C1373.61 5671.3 1339.9 5781.29 1303.47 5867.81Z" stroke="#1C1B1B" stroke-dasharray="10 5"/>
<path d="M1270.03 5862.31C1247.01 5917 1194.38 5947.48 1135.13 5950.11C1064.32 5953.26 982.955 5942.39 957.548 5876.19C928.891 5801.52 964.72 5719.82 1027.98 5670.91C1098.35 5616.49 1197.16 5581.78 1266.94 5636.96C1332.07 5688.46 1302.25 5785.77 1270.03 5862.31Z" stroke="#1C1B1B" stroke-dasharray="10 5"/>
<path d="M1236.58 5856.82C1216.57 5904.38 1170.8 5930.89 1119.29 5933.18C1057.72 5935.91 986.971 5926.46 964.879 5868.88C939.962 5803.95 971.115 5732.89 1026.12 5690.35C1087.31 5643.03 1173.22 5612.84 1233.9 5660.83C1290.53 5705.62 1264.6 5790.25 1236.58 5856.82Z" stroke="#1C1B1B" stroke-dasharray="10 5"/>
<path d="M1203.14 5851.32C1186.13 5891.75 1147.23 5914.29 1103.45 5916.24C1051.11 5918.56 990.987 5910.53 972.21 5861.58C951.032 5806.37 977.51 5745.96 1024.26 5709.8C1076.27 5669.56 1149.28 5643.9 1200.85 5684.7C1248.99 5722.78 1226.95 5794.72 1203.14 5851.32Z" stroke="#1C1B1B" stroke-dasharray="10 5"/>
<path d="M1169.69 5845.83C1155.69 5879.13 1123.66 5897.7 1087.6 5899.3C1044.51 5901.22 995.002 5894.6 979.541 5854.28C962.103 5808.8 983.906 5759.04 1022.4 5729.25C1065.22 5696.1 1125.35 5674.96 1167.81 5708.57C1207.45 5739.94 1189.3 5799.2 1169.69 5845.83Z" stroke="#1C1B1B" stroke-dasharray="10 5"/>
<path d="M1136.25 5840.33C1125.25 5866.51 1100.09 5881.1 1071.76 5882.36C1037.91 5883.87 999.018 5878.67 986.872 5846.97C973.174 5811.22 990.301 5772.11 1020.54 5748.69C1054.18 5722.64 1101.41 5706.02 1134.77 5732.44C1165.91 5757.09 1151.65 5803.68 1136.25 5840.33Z" stroke="#1C1B1B" stroke-dasharray="10 5"/>
<path d="M1102.81 5834.83C1094.81 5853.89 1076.51 5864.51 1055.92 5865.43C1031.31 5866.52 1003.03 5862.74 994.204 5839.67C984.244 5813.65 996.696 5785.18 1018.68 5768.14C1043.14 5749.17 1077.48 5737.08 1101.73 5756.31C1124.37 5774.25 1114 5808.16 1102.81 5834.83Z" stroke="#1C1B1B" stroke-dasharray="10 5"/>
<path d="M1069.36 5829.34C1064.36 5841.27 1052.94 5847.92 1040.08 5848.49C1024.71 5849.18 1007.05 5846.81 1001.53 5832.36C995.315 5816.08 1003.09 5798.25 1016.82 5787.58C1032.1 5775.71 1053.54 5768.14 1068.69 5780.18C1082.83 5791.41 1076.35 5812.64 1069.36 5829.34Z" stroke="#1C1B1B" stroke-dasharray="10 5"/>
</g>
<g filter="url(#filter5_f)">
<path fill-rule="evenodd" clip-rule="evenodd" d="M95.3373 939.387C142.822 941.497 185.004 965.951 203.451 1009.82C229.273 1071.23 253.173 1149.29 200.975 1190.6C145.048 1234.87 65.8633 1207.02 9.45975 1163.37C-41.2357 1124.13 -69.9502 1058.59 -46.9838 998.689C-26.6211 945.58 38.5853 936.864 95.3373 939.387Z" fill="url(#paint6_radial)"/>
</g>
<g filter="url(#filter6_f)">
<path fill-rule="evenodd" clip-rule="evenodd" d="M966.768 5613.56C967.874 5562.25 958.95 5501.8 1006.87 5471.37C1053.93 5441.49 1116.7 5469.1 1172.99 5482.63C1224.16 5494.93 1280.54 5503.79 1306.99 5543.52C1335.34 5586.09 1329.21 5638.4 1306.76 5683.52C1282.86 5731.55 1242.84 5774.1 1184.79 5789.08C1122.05 5805.28 1048.47 5801.09 1000.59 5762.54C955.469 5726.22 965.621 5666.79 966.768 5613.56Z" fill="url(#paint7_radial)" fill-opacity="0.6"/>
<path fill-rule="evenodd" clip-rule="evenodd" d="M966.768 5613.56C967.874 5562.25 958.95 5501.8 1006.87 5471.37C1053.93 5441.49 1116.7 5469.1 1172.99 5482.63C1224.16 5494.93 1280.54 5503.79 1306.99 5543.52C1335.34 5586.09 1329.21 5638.4 1306.76 5683.52C1282.86 5731.55 1242.84 5774.1 1184.79 5789.08C1122.05 5805.28 1048.47 5801.09 1000.59 5762.54C955.469 5726.22 965.621 5666.79 966.768 5613.56Z" fill="url(#paint8_radial)"/>
</g>
<g opacity="0.8" filter="url(#filter7_f)">
<path fill-rule="evenodd" clip-rule="evenodd" d="M1117 3654.1C1061.92 3652.91 997.017 3662.5 964.356 3611C932.279 3560.42 961.919 3492.96 976.445 3432.45C989.649 3377.46 999.156 3316.86 1041.8 3288.43C1087.51 3257.96 1143.66 3264.55 1192.1 3288.68C1243.66 3314.37 1289.34 3357.38 1305.43 3419.77C1322.81 3487.21 1318.32 3566.29 1276.94 3617.74C1237.94 3666.24 1174.15 3655.33 1117 3654.1Z" fill="url(#paint9_radial)"/>
<path fill-rule="evenodd" clip-rule="evenodd" d="M1117 3654.1C1061.92 3652.91 997.017 3662.5 964.356 3611C932.279 3560.42 961.919 3492.96 976.445 3432.45C989.649 3377.46 999.156 3316.86 1041.8 3288.43C1087.51 3257.96 1143.66 3264.55 1192.1 3288.68C1243.66 3314.37 1289.34 3357.38 1305.43 3419.77C1322.81 3487.21 1318.32 3566.29 1276.94 3617.74C1237.94 3666.24 1174.15 3655.33 1117 3654.1Z" fill="url(#paint10_radial)"/>
</g>
<g filter="url(#filter8_f)">
<path fill-rule="evenodd" clip-rule="evenodd" d="M445.962 4021.53C455.638 4061.02 474.872 4105.47 444.41 4138.59C414.492 4171.11 360.757 4162.86 314.867 4164.06C273.157 4165.15 228.157 4169.94 199.749 4144.96C169.303 4118.19 163.273 4076.9 171.216 4037.76C179.671 3996.09 201.591 3955.31 242.982 3931.93C287.716 3906.66 344.928 3894.77 389.503 3914.44C431.514 3932.98 435.924 3980.55 445.962 4021.53Z" fill="url(#paint11_radial)" fill-opacity="0.6"/>
<path fill-rule="evenodd" clip-rule="evenodd" d="M445.962 4021.53C455.638 4061.02 474.872 4105.47 444.41 4138.59C414.492 4171.11 360.757 4162.86 314.867 4164.06C273.157 4165.15 228.157 4169.94 199.749 4144.96C169.303 4118.19 163.273 4076.9 171.216 4037.76C179.671 3996.09 201.591 3955.31 242.982 3931.93C287.716 3906.66 344.928 3894.77 389.503 3914.44C431.514 3932.98 435.924 3980.55 445.962 4021.53Z" fill="url(#paint12_radial)"/>
</g>
<g filter="url(#filter9_f)">
<path fill-rule="evenodd" clip-rule="evenodd" d="M1348.86 4518.49C1344.86 4608.67 1298.49 4688.77 1215.3 4723.81C1098.85 4772.84 950.823 4818.23 872.475 4719.1C788.532 4612.9 841.339 4462.52 924.123 4355.41C998.529 4259.14 1122.82 4204.61 1236.4 4248.22C1337.12 4286.89 1353.64 4410.72 1348.86 4518.49Z" fill="url(#paint13_radial)"/>
</g>
<g opacity="0.8" filter="url(#filter10_f)">
<path fill-rule="evenodd" clip-rule="evenodd" d="M404.003 5357.1C348.919 5355.91 284.017 5365.5 251.356 5314C219.279 5263.42 248.919 5195.96 263.445 5135.45C276.649 5080.46 286.156 5019.86 328.803 4991.43C374.51 4960.96 430.663 4967.55 479.099 4991.68C530.659 5017.37 576.342 5060.37 592.429 5122.77C609.815 5190.21 605.316 5269.29 563.938 5320.74C524.939 5369.24 461.147 5358.33 404.003 5357.1Z" fill="url(#paint14_radial)"/>
<path fill-rule="evenodd" clip-rule="evenodd" d="M404.003 5357.1C348.919 5355.91 284.017 5365.5 251.356 5314C219.279 5263.42 248.919 5195.96 263.445 5135.45C276.649 5080.46 286.156 5019.86 328.803 4991.43C374.51 4960.96 430.663 4967.55 479.099 4991.68C530.659 5017.37 576.342 5060.37 592.429 5122.77C609.815 5190.21 605.316 5269.29 563.938 5320.74C524.939 5369.24 461.147 5358.33 404.003 5357.1Z" fill="url(#paint15_radial)"/>
</g>
<g opacity="0.8" filter="url(#filter11_f)">
<path fill-rule="evenodd" clip-rule="evenodd" d="M107.715 4723.68C108.162 4703.01 104.553 4678.65 123.933 4666.39C142.967 4654.35 168.351 4665.47 191.118 4670.93C211.811 4675.88 234.614 4679.45 245.312 4695.46C256.778 4712.61 254.298 4733.69 245.218 4751.87C235.552 4771.22 219.369 4788.37 195.89 4794.41C170.515 4800.93 140.758 4799.24 121.395 4783.71C103.145 4769.08 107.251 4745.13 107.715 4723.68Z" fill="url(#paint16_radial)"/>
<path fill-rule="evenodd" clip-rule="evenodd" d="M107.715 4723.68C108.162 4703.01 104.553 4678.65 123.933 4666.39C142.967 4654.35 168.351 4665.47 191.118 4670.93C211.811 4675.88 234.614 4679.45 245.312 4695.46C256.778 4712.61 254.298 4733.69 245.218 4751.87C235.552 4771.22 219.369 4788.37 195.89 4794.41C170.515 4800.93 140.758 4799.24 121.395 4783.71C103.145 4769.08 107.251 4745.13 107.715 4723.68Z" fill="url(#paint17_radial)"/>
</g>
</g>
<defs>
<filter id="filter0_f" x="338" y="5798" width="276" height="257" filterUnits="userSpaceOnUse" color-interpolation-filters="sRGB">
<feFlood flood-opacity="0" result="BackgroundImageFix"/>
<feBlend mode="normal" in="SourceGraphic" in2="BackgroundImageFix" result="shape"/>
<feGaussianBlur stdDeviation="27" result="effect1_foregroundBlur"/>
</filter>
<filter id="filter1_f" x="-38" y="5365" width="283" height="294" filterUnits="userSpaceOnUse" color-interpolation-filters="sRGB">
<feFlood flood-opacity="0" result="BackgroundImageFix"/>
<feBlend mode="normal" in="SourceGraphic" in2="BackgroundImageFix" result="shape"/>
<feGaussianBlur stdDeviation="27" result="effect1_foregroundBlur"/>
</filter>
<filter id="filter2_f" x="916" y="698" width="509.292" height="465.929" filterUnits="userSpaceOnUse" color-interpolation-filters="sRGB">
<feFlood flood-opacity="0" result="BackgroundImageFix"/>
<feBlend mode="normal" in="SourceGraphic" in2="BackgroundImageFix" result="shape"/>
<feGaussianBlur stdDeviation="27" result="effect1_foregroundBlur"/>
</filter>
<filter id="filter3_f" x="927" y="1973" width="495" height="542" filterUnits="userSpaceOnUse" color-interpolation-filters="sRGB">
<feFlood flood-opacity="0" result="BackgroundImageFix"/>
<feBlend mode="normal" in="SourceGraphic" in2="BackgroundImageFix" result="shape"/>
<feGaussianBlur stdDeviation="27" result="effect1_foregroundBlur"/>
</filter>
<filter id="filter4_f" x="-101" y="2549" width="653.02" height="627.595" filterUnits="userSpaceOnUse" color-interpolation-filters="sRGB">
<feFlood flood-opacity="0" result="BackgroundImageFix"/>
<feBlend mode="normal" in="SourceGraphic" in2="BackgroundImageFix" result="shape"/>
<feGaussianBlur stdDeviation="27" result="effect1_foregroundBlur"/>
</filter>
<filter id="filter5_f" x="-109" y="885" width="395" height="382" filterUnits="userSpaceOnUse" color-interpolation-filters="sRGB">
<feFlood flood-opacity="0" result="BackgroundImageFix"/>
<feBlend mode="normal" in="SourceGraphic" in2="BackgroundImageFix" result="shape"/>
<feGaussianBlur stdDeviation="27" result="effect1_foregroundBlur"/>
</filter>
<filter id="filter6_f" x="911" y="5404" width="469" height="448" filterUnits="userSpaceOnUse" color-interpolation-filters="sRGB">
<feFlood flood-opacity="0" result="BackgroundImageFix"/>
<feBlend mode="normal" in="SourceGraphic" in2="BackgroundImageFix" result="shape"/>
<feGaussianBlur stdDeviation="27" result="effect1_foregroundBlur"/>
</filter>
<filter id="filter7_f" x="896" y="3214" width="473" height="496" filterUnits="userSpaceOnUse" color-interpolation-filters="sRGB">
<feFlood flood-opacity="0" result="BackgroundImageFix"/>
<feBlend mode="normal" in="SourceGraphic" in2="BackgroundImageFix" result="shape"/>
<feGaussianBlur stdDeviation="27" result="effect1_foregroundBlur"/>
</filter>
<filter id="filter8_f" x="114.038" y="3850.6" width="400.866" height="368.541" filterUnits="userSpaceOnUse" color-interpolation-filters="sRGB">
<feFlood flood-opacity="0" result="BackgroundImageFix"/>
<feBlend mode="normal" in="SourceGraphic" in2="BackgroundImageFix" result="shape"/>
<feGaussianBlur stdDeviation="27" result="effect1_foregroundBlur"/>
</filter>
<filter id="filter9_f" x="776" y="4179" width="627.595" height="653.02" filterUnits="userSpaceOnUse" color-interpolation-filters="sRGB">
<feFlood flood-opacity="0" result="BackgroundImageFix"/>
<feBlend mode="normal" in="SourceGraphic" in2="BackgroundImageFix" result="shape"/>
<feGaussianBlur stdDeviation="27" result="effect1_foregroundBlur"/>
</filter>
<filter id="filter10_f" x="183" y="4917" width="473" height="496" filterUnits="userSpaceOnUse" color-interpolation-filters="sRGB">
<feFlood flood-opacity="0" result="BackgroundImageFix"/>
<feBlend mode="normal" in="SourceGraphic" in2="BackgroundImageFix" result="shape"/>
<feGaussianBlur stdDeviation="27" result="effect1_foregroundBlur"/>
</filter>
<filter id="filter11_f" x="53" y="4607" width="254" height="245" filterUnits="userSpaceOnUse" color-interpolation-filters="sRGB">
<feFlood flood-opacity="0" result="BackgroundImageFix"/>
<feBlend mode="normal" in="SourceGraphic" in2="BackgroundImageFix" result="shape"/>
<feGaussianBlur stdDeviation="27" result="effect1_foregroundBlur"/>
</filter>
<radialGradient id="paint0_radial" cx="0" cy="0" r="1" gradientUnits="userSpaceOnUse" gradientTransform="translate(476.151 5948.21) rotate(-72.367) scale(115.26 96.7238)">
<stop stop-color="#FF6C00"/>
<stop offset="1" stop-color="#FF6C00" stop-opacity="0.188202"/>
</radialGradient>
<radialGradient id="paint1_radial" cx="0" cy="0" r="1" gradientUnits="userSpaceOnUse" gradientTransform="translate(103.5 5478.22) rotate(124.613) scale(154.04 106.396)">
<stop stop-color="#FF6C00"/>
<stop offset="0.302247" stop-color="#FF6C00" stop-opacity="0.835893"/>
<stop offset="1" stop-color="#FF6C00" stop-opacity="0"/>
</radialGradient>
<radialGradient id="paint2_radial" cx="0" cy="0" r="1" gradientUnits="userSpaceOnUse" gradientTransform="translate(136.511 5583.49) rotate(176.93) scale(69.1049 48.2372)">
<stop stop-color="#FF6C00" stop-opacity="0.8"/>
<stop offset="1" stop-color="#FF6C00" stop-opacity="0.1"/>
</radialGradient>
<radialGradient id="paint3_radial" cx="0" cy="0" r="1" gradientUnits="userSpaceOnUse" gradientTransform="translate(1276.02 860.667) rotate(153.626) scale(267.882 227.346)">
<stop stop-color="#FF6C00"/>
<stop offset="1" stop-color="#FF6C00" stop-opacity="0.188202"/>
</radialGradient>
<radialGradient id="paint4_radial" cx="0" cy="0" r="1" gradientUnits="userSpaceOnUse" gradientTransform="translate(1226.21 2178.05) rotate(171.124) scale(220.607 234.543)">
<stop stop-color="#FF6C00"/>
<stop offset="1" stop-color="#FF6C00" stop-opacity="0.188202"/>
</radialGradient>
<radialGradient id="paint5_radial" cx="0" cy="0" r="1" gradientUnits="userSpaceOnUse" gradientTransform="translate(147.5 2777) rotate(46.011) scale(480.907 504.44)">
<stop stop-color="#FF6C00"/>
<stop offset="1" stop-color="#FF6C00" stop-opacity="0.188202"/>
</radialGradient>
<radialGradient id="paint6_radial" cx="0" cy="0" r="1" gradientUnits="userSpaceOnUse" gradientTransform="translate(47.4209 1030.76) rotate(46.0517) scale(253.425 265.813)">
<stop stop-color="#FF6C00"/>
<stop offset="1" stop-color="#FF6C00" stop-opacity="0.188202"/>
</radialGradient>
<radialGradient id="paint7_radial" cx="0" cy="0" r="1" gradientUnits="userSpaceOnUse" gradientTransform="translate(1221.51 5686.13) rotate(-138.352) scale(343.28 237.153)">
<stop stop-color="#FF6C00"/>
<stop offset="0.302247" stop-color="#FF6C00" stop-opacity="0.835893"/>
<stop offset="1" stop-color="#FF6C00" stop-opacity="0"/>
</radialGradient>
<radialGradient id="paint8_radial" cx="0" cy="0" r="1" gradientUnits="userSpaceOnUse" gradientTransform="translate(1055.43 5701.67) rotate(-111.253) scale(154.083 184.205)">
<stop offset="0.229167" stop-color="#FF6C00" stop-opacity="0.8"/>
<stop offset="1" stop-color="#FF6C00" stop-opacity="0.1"/>
</radialGradient>
<radialGradient id="paint9_radial" cx="0" cy="0" r="1" gradientUnits="userSpaceOnUse" gradientTransform="translate(1132.5 3391.54) rotate(124.609) scale(321.316 221.923)">
<stop stop-color="#FF6C00"/>
<stop offset="0.302247" stop-color="#FF6C00" stop-opacity="0.835893"/>
<stop offset="1" stop-color="#FF6C00" stop-opacity="0"/>
</radialGradient>
<radialGradient id="paint10_radial" cx="0" cy="0" r="1" gradientUnits="userSpaceOnUse" gradientTransform="translate(1201.35 3611.12) rotate(176.929) scale(144.133 100.624)">
<stop stop-color="#FF6C00" stop-opacity="0.8"/>
<stop offset="1" stop-color="#FF6C00" stop-opacity="0.1"/>
</radialGradient>
<radialGradient id="paint11_radial" cx="0" cy="0" r="1" gradientUnits="userSpaceOnUse" gradientTransform="translate(235.971 4018.27) rotate(26.6286) scale(272.112 187.971)">
<stop stop-color="#FF6C00"/>
<stop offset="0.302247" stop-color="#FF6C00" stop-opacity="0.835893"/>
<stop offset="1" stop-color="#FF6C00" stop-opacity="0"/>
</radialGradient>
<radialGradient id="paint12_radial" cx="0" cy="0" r="1" gradientUnits="userSpaceOnUse" gradientTransform="translate(359.989 3972.29) rotate(53.7335) scale(122.103 146.047)">
<stop offset="0.229167" stop-color="#FF6C00" stop-opacity="0.8"/>
<stop offset="1" stop-color="#FF6C00" stop-opacity="0.1"/>
</radialGradient>
<radialGradient id="paint13_radial" cx="0" cy="0" r="1" gradientUnits="userSpaceOnUse" gradientTransform="translate(1165.5 4506) rotate(174.77) scale(290.71 304.936)">
<stop stop-color="#FF6C00"/>
<stop offset="1" stop-color="#FF6C00" stop-opacity="0.188202"/>
</radialGradient>
<radialGradient id="paint14_radial" cx="0" cy="0" r="1" gradientUnits="userSpaceOnUse" gradientTransform="translate(419.5 5094.54) rotate(124.609) scale(321.316 221.923)">
<stop stop-color="#FF6C00"/>
<stop offset="0.302247" stop-color="#FF6C00" stop-opacity="0.835893"/>
<stop offset="1" stop-color="#FF6C00" stop-opacity="0"/>
</radialGradient>
<radialGradient id="paint15_radial" cx="0" cy="0" r="1" gradientUnits="userSpaceOnUse" gradientTransform="translate(488.352 5314.12) rotate(176.929) scale(144.133 100.624)">
<stop stop-color="#FF6C00" stop-opacity="0.8"/>
<stop offset="1" stop-color="#FF6C00" stop-opacity="0.1"/>
</radialGradient>
<radialGradient id="paint16_radial" cx="0" cy="0" r="1" gradientUnits="userSpaceOnUse" gradientTransform="translate(206.512 4729.5) rotate(-145.458) scale(120.81 83.3647)">
<stop stop-color="#FF6C00"/>
<stop offset="0.302247" stop-color="#FF6C00" stop-opacity="0.835893"/>
<stop offset="1" stop-color="#FF6C00" stop-opacity="0"/>
</radialGradient>
<radialGradient id="paint17_radial" cx="0" cy="0" r="1" gradientUnits="userSpaceOnUse" gradientTransform="translate(123.888 4755.34) rotate(-93.0786) scale(54.0997 37.8633)">
<stop stop-color="#FF6C00" stop-opacity="0.8"/>
<stop offset="1" stop-color="#FF6C00" stop-opacity="0.1"/>
</radialGradient>
<clipPath id="clip0">
<rect width="1280" height="6112" fill="white"/>
</clipPath>
</defs>
</svg>
