<svg width="21" height="21" viewBox="0 0 21 21" fill="none" xmlns="http://www.w3.org/2000/svg">
<g clip-path="url(#clip0)">
<path d="M16.2786 3.03394H14.4884V2.22449C14.4884 1.96261 14.2057 1.84358 13.9466 1.84358H12.5569C12.2271 0.89127 11.4027 0.415116 10.4604 0.415116C9.5286 0.379708 8.68103 0.957209 8.36402 1.84358H6.99782C6.73871 1.84358 6.4796 1.96261 6.4796 2.22449V3.03394H4.68935C3.62847 3.04538 2.76056 3.89124 2.71069 4.96235V18.6041C2.71069 19.6517 3.65291 20.4135 4.68935 20.4135H16.2786C17.315 20.4135 18.2572 19.6517 18.2572 18.6041V4.96239C18.2074 3.89124 17.3394 3.04538 16.2786 3.03394ZM7.42176 2.79589H8.71732C8.94347 2.768 9.12513 2.59411 9.16489 2.36735C9.30439 1.75335 9.83735 1.31261 10.4604 1.29602C11.0778 1.31493 11.6027 1.75704 11.7324 2.36735C11.7747 2.60195 11.9683 2.77807 12.2035 2.79589H13.5462V4.70051H7.42176V2.79589ZM17.315 18.6042C17.315 19.128 16.7968 19.4613 16.2786 19.4613H4.68935C4.17113 19.4613 3.65291 19.128 3.65291 18.6042V4.96239C3.70097 4.4172 4.14787 3.99628 4.68935 3.9863H6.47955V5.20049C6.50444 5.46726 6.73303 5.66681 6.99777 5.65286H13.9466C14.2162 5.66776 14.4519 5.47095 14.4883 5.20049V3.98625H16.2785C16.82 3.99628 17.2669 4.41716 17.315 4.96235V18.6042H17.315Z" fill="#F9F5F2"/>
<path d="M8.67008 11.0571C8.49338 10.8689 8.20005 10.8583 8.01051 11.0333L6.50296 12.4856L5.86697 11.819C5.69028 11.6307 5.39695 11.6201 5.2074 11.7952C5.02494 11.9884 5.02494 12.2924 5.2074 12.4856L6.17315 13.4855C6.25674 13.5801 6.37748 13.6324 6.50291 13.6284C6.62717 13.6266 6.7457 13.5753 6.83268 13.4855L8.66999 11.7238C8.85213 11.5549 8.86431 11.2687 8.69717 11.0847C8.68861 11.075 8.67954 11.0659 8.67008 11.0571Z" fill="#F9F5F2"/>
<path d="M15.4306 12.0811H10.0129C9.75266 12.0811 9.54175 12.2942 9.54175 12.5572C9.54175 12.8202 9.75266 13.0334 10.0129 13.0334H15.4306C15.6908 13.0334 15.9017 12.8202 15.9017 12.5572C15.9017 12.2942 15.6908 12.0811 15.4306 12.0811Z" fill="#F9F5F2"/>
<path d="M8.67008 7.24805C8.49338 7.05981 8.20005 7.04919 8.01051 7.22427L6.50296 8.67651L5.86697 8.00988C5.69028 7.82164 5.39695 7.81102 5.2074 7.98609C5.02494 8.17931 5.02494 8.4833 5.2074 8.67651L6.17315 9.67644C6.25674 9.77104 6.37748 9.82336 6.50291 9.8193C6.62717 9.81752 6.7457 9.76617 6.83268 9.67644L8.66999 7.91469C8.85213 7.74581 8.86431 7.45963 8.69717 7.27558C8.68861 7.26596 8.67954 7.2568 8.67008 7.24805Z" fill="#F9F5F2"/>
<path d="M15.4306 8.27148H10.0129C9.75266 8.27148 9.54175 8.48466 9.54175 8.74764C9.54175 9.01062 9.75266 9.22379 10.0129 9.22379H15.4306C15.6908 9.22379 15.9017 9.01062 15.9017 8.74764C15.9017 8.48466 15.6908 8.27148 15.4306 8.27148Z" fill="#F9F5F2"/>
<path d="M8.67008 14.8662C8.49338 14.678 8.20005 14.6674 8.01051 14.8424L6.50296 16.2947L5.86697 15.628C5.69028 15.4398 5.39695 15.4292 5.2074 15.6042C5.02494 15.7975 5.02494 16.1015 5.2074 16.2947L6.17315 17.2946C6.25674 17.3892 6.37748 17.4415 6.50291 17.4375C6.62717 17.4357 6.7457 17.3843 6.83268 17.2946L8.66999 15.5328C8.85213 15.364 8.86431 15.0778 8.69717 14.8937C8.68861 14.8842 8.67954 14.875 8.67008 14.8662Z" fill="#F9F5F2"/>
<path d="M15.4306 15.8901H10.0129C9.75266 15.8901 9.54175 16.1033 9.54175 16.3663C9.54175 16.6293 9.75266 16.8424 10.0129 16.8424H15.4306C15.6908 16.8424 15.9017 16.6293 15.9017 16.3663C15.9017 16.1033 15.6908 15.8901 15.4306 15.8901Z" fill="#F9F5F2"/>
</g>
<defs>
<clipPath id="clip0">
<rect width="19.788" height="20" fill="white" transform="translate(0.590088 0.413574)"/>
</clipPath>
</defs>
</svg>
