<svg width="100" height="30" viewBox="0 0 100 30" fill="none" xmlns="http://www.w3.org/2000/svg">
<g clip-path="url(#clip0)">
<path fill-rule="evenodd" clip-rule="evenodd" d="M0 30.0001H44.2862C44.3156 29.9524 44.3435 29.9031 44.376 29.8569C46.0838 27.4239 47.7921 24.9912 49.5003 22.5586C51.2057 20.1301 52.911 17.7016 54.616 15.2727C54.6761 15.1874 54.7059 15.145 54.7058 15.1027C54.7057 15.0611 54.6767 15.0195 54.6191 14.937C53.9177 13.9337 53.2163 12.9304 52.515 11.9272C49.8036 8.04902 47.0927 4.17137 44.3837 0.292746C44.3109 0.188023 44.2366 0.151062 44.1096 0.151062C29.4689 0.154142 14.8266 0.154142 0.185856 0.154142H0.185816H0V30.0001ZM32.0966 8.3179C32.7439 8.14849 33.3524 8.08227 34.1669 8.08227C35.9306 8.09767 37.637 8.71677 39.0678 10.0196C40.1796 11.033 40.861 12.2958 41.1335 13.7696C41.437 15.4098 41.2186 16.9806 40.4042 18.4452C39.4379 20.1808 37.9638 21.2943 36.0406 21.7994C34.3853 22.2352 32.7439 22.1475 31.1598 21.4883C29.0957 20.6305 27.764 19.0905 27.1384 16.9745C26.5794 15.0818 26.7823 13.243 27.7826 11.5258C28.7581 9.85486 30.2245 8.80763 32.0966 8.3179ZM20.59 12.8612C20.5632 12.8961 20.5357 12.9317 20.4924 12.958C20.3797 12.8689 20.2696 12.7798 20.1605 12.6914C20.0359 12.5905 19.9125 12.4906 19.7879 12.3928C19.3202 12.0371 18.8139 11.7537 18.2347 11.6274C17.5921 11.4873 16.9464 11.4365 16.3069 11.6305C15.3949 11.9062 14.7584 12.5068 14.3404 13.3431C13.9919 14.0376 13.8975 14.7768 13.9904 15.5438C14.0632 16.1444 14.2567 16.7019 14.6113 17.1962C15.1564 17.9539 15.9012 18.3944 16.8287 18.5099C17.6649 18.6146 18.4748 18.5099 19.2413 18.1434C19.503 18.0178 19.503 18.0156 19.5029 17.7265V17.7214C19.5029 17.651 19.5031 17.5808 19.5033 17.5106C19.5036 17.3705 19.504 17.2306 19.5029 17.09C19.5014 16.9816 19.5093 16.934 19.4894 16.9134C19.47 16.8934 19.4241 16.899 19.3171 16.899C19.0465 16.899 18.7761 16.8992 18.5058 16.8994C17.9656 16.8997 17.4258 16.9 16.886 16.899C16.7771 16.8982 16.7302 16.904 16.7106 16.8836C16.6909 16.863 16.6987 16.8161 16.6987 16.7096V13.7989C16.6987 13.7872 16.699 13.7752 16.6994 13.7633C16.7 13.7391 16.7007 13.7148 16.6987 13.6911C16.694 13.6341 16.7142 13.6049 16.7761 13.6095C16.7999 13.6115 16.8244 13.6108 16.8486 13.6102C16.8607 13.6098 16.8727 13.6095 16.8845 13.6095H22.922H23.0304C23.0706 13.6095 23.1031 13.6172 23.0985 13.668C23.0957 13.6995 23.1152 13.7202 23.1351 13.7412C23.159 13.7664 23.1832 13.792 23.1697 13.8374C23.158 13.8756 23.1609 13.919 23.1639 13.9624C23.1653 13.982 23.1666 14.0015 23.1666 14.0207C23.1666 14.3888 23.1666 14.7571 23.1665 15.1253C23.1662 16.5994 23.166 18.0741 23.1697 19.5479C23.1697 19.668 23.1325 19.7435 23.0412 19.8189C21.8969 20.7676 20.6101 21.4298 19.1545 21.7563C18.2936 21.9503 17.4218 22.0042 16.5407 21.9334C15.5002 21.8502 14.5122 21.5838 13.5971 21.0787C11.9201 20.1516 10.864 18.744 10.3778 16.9067C10.1641 16.0951 10.0991 15.2681 10.1672 14.4334C10.4212 11.3395 12.5999 8.92314 15.5172 8.25168C16.3503 8.05917 17.1911 8.03145 18.0396 8.08843C18.69 8.13155 19.3295 8.2332 19.9551 8.41954C20.8935 8.69829 21.7203 9.17878 22.4714 9.7948L22.4716 9.79502C22.5582 9.86733 22.6449 9.93964 22.7315 10.0135C22.8383 10.1059 22.843 10.1582 22.7485 10.2722L21.3255 11.9786C21.2267 12.0966 21.1284 12.2146 21.0303 12.3326C20.8915 12.4993 20.7529 12.6658 20.6132 12.8318C20.6053 12.8414 20.5976 12.8513 20.59 12.8612ZM37.3459 14.2348C36.9959 12.704 35.7122 11.5998 33.7488 11.6044C32.7825 11.626 31.7853 12.1773 31.1597 13.3277C30.7355 14.1085 30.6364 14.9509 30.7974 15.821C30.9244 16.5079 31.2232 17.1147 31.7187 17.6152C32.4914 18.3945 33.4375 18.6994 34.5215 18.5762C35.6425 18.4484 36.4772 17.8755 37.0098 16.8914C37.4635 16.0536 37.5565 15.1573 37.3459 14.2348Z" fill="black"/>
<path d="M55.7759 0C70.5173 0 85.2587 0 100 0C100 9.94867 100 19.8973 100 29.846C99.9242 29.8214 99.8484 29.8352 99.7709 29.8352C85.1875 29.8352 70.6025 29.8352 56.019 29.8337C55.7527 29.8337 55.7898 29.8722 55.7898 29.6073C55.7898 19.8096 55.7898 10.0118 55.7883 0.212526C55.7883 0.141684 55.8022 0.0693019 55.7759 0ZM81.8211 8.49487C79.9893 8.49487 78.1574 8.49487 76.324 8.49487C76.2822 8.49487 76.242 8.49641 76.2002 8.49487C76.1382 8.49179 76.1181 8.52105 76.1212 8.57803C76.1227 8.60421 76.1212 8.62885 76.1212 8.65503C76.1212 9.69764 76.1212 10.7387 76.1212 11.7813C76.1212 11.9615 76.1088 11.9446 76.29 11.9446C77.4405 11.9446 78.591 11.9446 79.7431 11.9446C79.966 11.9446 79.966 11.9446 79.966 12.1602C79.966 15.3727 79.966 18.5868 79.966 21.7993C79.966 21.9764 79.9444 21.9625 80.1317 21.9641C80.1472 21.9641 80.1627 21.9641 80.1782 21.9641C81.2667 21.9641 82.3553 21.9641 83.4454 21.9641C83.6514 21.9641 83.6514 21.9641 83.6514 21.7639C83.6514 18.5513 83.6514 15.3373 83.6514 12.1247C83.6514 11.9292 83.6266 11.9461 83.8357 11.9461C85.0078 11.9461 86.1785 11.9461 87.3507 11.9461C87.504 11.9461 87.504 11.9446 87.504 11.7967C87.504 11.7813 87.504 11.7659 87.504 11.7505C87.504 10.7295 87.504 9.70842 87.504 8.68583C87.504 8.47177 87.5272 8.49641 87.3151 8.49641C85.4848 8.49487 83.6529 8.49487 81.8211 8.49487ZM68.9626 15.2218C68.9626 17.3932 68.9626 19.5631 68.9626 21.7346C68.9626 21.7762 68.9657 21.8162 68.9626 21.8578C68.9564 21.9317 68.9766 21.9779 69.0633 21.9656C69.0942 21.961 69.1252 21.9656 69.1562 21.9656C70.2556 21.9656 71.355 21.9656 72.4529 21.9656C72.6805 21.9656 72.648 21.9918 72.648 21.7685C72.648 17.4117 72.648 13.0534 72.648 8.69661C72.648 8.66581 72.6449 8.63501 72.648 8.60421C72.6557 8.52721 72.6294 8.48717 72.5458 8.49641C72.521 8.49949 72.4947 8.49641 72.4684 8.49641C71.3597 8.49641 70.2494 8.49641 69.1407 8.49641C68.9379 8.49641 68.9626 8.47177 68.9626 8.67813C68.9611 10.8588 68.9626 13.0395 68.9626 15.2218Z" fill="#FF6C00"/>
<path fill-rule="evenodd" clip-rule="evenodd" d="M20.2905 12.7948C20.3572 12.8489 20.4244 12.9033 20.4925 12.9579C20.5377 12.9305 20.5656 12.8929 20.5918 12.8575C20.598 12.8492 20.604 12.8411 20.6102 12.8332C20.8486 12.5498 21.0855 12.2649 21.3224 11.98C21.7978 11.4117 22.2717 10.8435 22.7455 10.2736C22.8399 10.1597 22.8368 10.1073 22.7285 10.0149C22.6433 9.94099 22.5566 9.86861 22.4683 9.79622C21.7158 9.18021 20.8889 8.69971 19.9521 8.42097C19.3265 8.23616 18.687 8.13452 18.0366 8.08986C17.188 8.03288 16.3472 8.0606 15.5141 8.2531C12.5968 8.92456 10.4197 11.3393 10.1642 14.4348C10.0961 15.2695 10.1611 16.0965 10.3748 16.9081C10.861 18.7454 11.9171 20.153 13.5941 21.0801C14.5076 21.5852 15.4971 21.8517 16.5377 21.9348C17.4188 22.0057 18.2906 21.9518 19.1515 21.7577C20.6071 21.4297 21.8938 20.7675 23.0382 19.8204C23.1295 19.7449 23.1667 19.6694 23.1667 19.5493C23.163 18.0759 23.1632 16.6016 23.1635 15.1278C23.1635 14.7592 23.1636 14.3906 23.1636 14.0221C23.1636 14.003 23.1622 13.9835 23.1609 13.9641C23.1579 13.921 23.1549 13.8781 23.1667 13.8388C23.1803 13.7932 23.1557 13.7671 23.1317 13.7416C23.112 13.7206 23.0926 13.7 23.0954 13.6694C23.1016 13.6186 23.0676 13.6109 23.0273 13.6109H22.9189H16.8814C16.8696 13.6109 16.8576 13.6112 16.8456 13.6116C16.8213 13.6123 16.7969 13.613 16.7731 13.6109C16.7111 13.6047 16.691 13.6355 16.6956 13.6925C16.6977 13.7162 16.697 13.7406 16.6963 13.7647C16.696 13.7767 16.6956 13.7886 16.6956 13.8003C16.6956 14.1237 16.6955 14.4471 16.6953 14.7706C16.6949 15.4174 16.6946 16.0642 16.6956 16.711C16.6956 16.8177 16.6878 16.865 16.7077 16.8857C16.7274 16.9062 16.7743 16.9004 16.883 16.9004H19.3141C19.4213 16.9004 19.4675 16.8948 19.4871 16.915C19.507 16.9356 19.4991 16.9832 19.4999 17.0914C19.5009 17.232 19.5006 17.3719 19.5002 17.5121C19.5001 17.5822 19.4999 17.6524 19.4999 17.7228V17.7279C19.4999 18.017 19.4999 18.0192 19.2382 18.1448C18.4717 18.5113 17.6619 18.616 16.8257 18.5113C15.8966 18.3958 15.1534 17.9569 14.6083 17.1977C14.2537 16.7033 14.0601 16.1458 13.9874 15.5452C13.896 14.7783 13.9889 14.0406 14.3373 13.3445C14.7569 12.5082 15.3918 11.9076 16.3039 11.632C16.9434 11.4379 17.5906 11.4887 18.2317 11.6289C18.8124 11.7552 19.3187 12.0385 19.7848 12.3943C19.9557 12.5234 20.1218 12.658 20.2905 12.7948ZM39.0694 10.0197C37.6371 8.71684 35.9307 8.0962 34.167 8.08234C33.3525 8.08388 32.7439 8.1501 32.0982 8.31797C30.2246 8.80616 28.7582 9.85339 27.7842 11.5259C26.7839 13.2415 26.5811 15.0818 27.14 16.9745C27.7656 19.0905 29.0989 20.6306 31.1614 21.4884C32.7455 22.146 34.3869 22.2338 36.0422 21.7995C37.9654 21.2959 39.4395 20.1824 40.4057 18.4453C41.2202 16.9807 41.4386 15.4099 41.1351 13.7697C40.8625 12.2959 40.1812 11.0331 39.0694 10.0197ZM31.1599 13.3277C31.7839 12.1773 32.7811 11.626 33.7489 11.6044C35.7123 11.5998 36.996 12.704 37.346 14.2348C37.5581 15.1573 37.4637 16.0536 37.01 16.8914C36.4757 17.8755 35.6427 18.4484 34.5216 18.5762C33.4377 18.7009 32.4915 18.3945 31.7189 17.6152C31.2233 17.1162 30.9245 16.5079 30.7975 15.821C30.6365 14.9509 30.7356 14.1085 31.1599 13.3277Z" fill="white"/>
<path fill-rule="evenodd" clip-rule="evenodd" d="M87.3181 8.49474H81.821H81.8197C79.9883 8.49474 78.1569 8.49474 76.3271 8.4932C76.3131 8.4932 76.2993 8.49337 76.2855 8.49355C76.2581 8.49389 76.231 8.49423 76.2032 8.4932C76.1413 8.49012 76.1196 8.51938 76.1242 8.57636C76.1252 8.59376 76.1249 8.61048 76.1246 8.62742C76.1244 8.63597 76.1242 8.64458 76.1242 8.65337V11.7796C76.1242 11.8688 76.1212 11.9097 76.1401 11.9283C76.1594 11.9472 76.2015 11.9429 76.293 11.9429H79.7461C79.8588 11.9429 79.9146 11.9429 79.9421 11.9708C79.9691 11.998 79.9691 12.0519 79.9691 12.1585V21.7976C79.9691 21.8862 79.9636 21.9274 79.9817 21.9464C79.9997 21.9655 80.0411 21.9624 80.1348 21.9624H80.1812H83.4485C83.5524 21.9624 83.6039 21.9624 83.6294 21.9367C83.6544 21.9114 83.6544 21.8614 83.6544 21.7622V12.1231C83.6544 12.026 83.6483 11.9813 83.6677 11.9608C83.6875 11.9401 83.7334 11.9444 83.8387 11.9444H87.3537C87.5055 11.9444 87.5055 11.9444 87.507 11.795V11.7488V8.68417C87.507 8.57708 87.5128 8.52973 87.4921 8.50915C87.4714 8.48859 87.4241 8.49474 87.3181 8.49474ZM68.9626 8.67765V15.2213V21.7341C68.9626 21.748 68.9629 21.762 68.9633 21.7758C68.964 21.8034 68.9646 21.8307 68.9626 21.8573C68.9564 21.9328 68.9765 21.9774 69.0632 21.9651C69.0839 21.9631 69.1045 21.9638 69.1252 21.9644C69.1355 21.9648 69.1458 21.9651 69.1561 21.9651C69.522 21.9651 69.888 21.9653 70.2541 21.9655C70.9867 21.9658 71.7198 21.9662 72.4528 21.9651C72.5662 21.9651 72.615 21.9712 72.6355 21.95C72.6561 21.9286 72.6479 21.8793 72.6479 21.768V8.69613C72.6479 8.68587 72.6476 8.6756 72.6472 8.66533C72.6466 8.6448 72.6459 8.62426 72.6479 8.60373C72.6557 8.52673 72.6294 8.48669 72.5457 8.49593C72.5293 8.49797 72.5121 8.4973 72.4948 8.49662C72.486 8.49627 72.4771 8.49593 72.4683 8.49593C72.0988 8.49593 71.7291 8.49576 71.3594 8.49559C70.6197 8.49524 69.8798 8.4949 69.1407 8.49593C69.0398 8.49593 68.9952 8.48983 68.9759 8.50909C68.9563 8.52855 68.9626 8.57392 68.9626 8.67765Z" fill="white"/>
</g>
<defs>
<clipPath id="clip0">
<rect width="100" height="30" fill="white"/>
</clipPath>
</defs>
</svg>
