<svg width="100" height="30" viewBox="0 0 100 30" fill="none" xmlns="http://www.w3.org/2000/svg">
<g clip-path="url(#clip0)">
<path fill-rule="evenodd" clip-rule="evenodd" d="M0 30H44.2862C44.3156 29.9522 44.3435 29.9029 44.376 29.8567C46.0838 27.4237 47.7921 24.9911 49.5003 22.5584C51.2057 20.1299 52.911 17.7014 54.616 15.2725C54.6761 15.1872 54.7059 15.1448 54.7058 15.1025C54.7057 15.0609 54.6767 15.0193 54.6191 14.9368C53.9177 13.9335 53.2163 12.9303 52.515 11.9271C49.8036 8.04884 47.0927 4.17119 44.3837 0.292563C44.3109 0.18784 44.2366 0.150879 44.1096 0.150879C29.4689 0.153959 14.8266 0.153959 0.185856 0.153959H0.185816H0V30ZM32.0966 8.31772C32.7439 8.14831 33.3524 8.08209 34.1669 8.08209C35.9306 8.09749 37.637 8.71659 39.0678 10.0195C40.1796 11.0328 40.861 12.2956 41.1335 13.7695C41.437 15.4096 41.2186 16.9804 40.4042 18.445C39.4379 20.1807 37.9638 21.2941 36.0406 21.7992C34.3853 22.2351 32.7439 22.1473 31.1598 21.4881C29.0957 20.6303 27.764 19.0903 27.1384 16.9743C26.5794 15.0816 26.7823 13.2428 27.7826 11.5256C28.7581 9.85468 30.2245 8.80745 32.0966 8.31772ZM20.59 12.8611C20.5632 12.8959 20.5357 12.9315 20.4924 12.9579C20.3797 12.8687 20.2696 12.7796 20.1605 12.6912C20.0359 12.5903 19.9125 12.4904 19.7879 12.3927C19.3202 12.0369 18.8139 11.7535 18.2347 11.6273C17.5921 11.4871 16.9464 11.4363 16.3069 11.6303C15.3949 11.906 14.7584 12.5066 14.3404 13.3429C13.9919 14.0374 13.8975 14.7766 13.9904 15.5436C14.0632 16.1442 14.2567 16.7017 14.6113 17.1961C15.1564 17.9538 15.9012 18.3942 16.8287 18.5097C17.6649 18.6144 18.4748 18.5097 19.2413 18.1432C19.503 18.0176 19.503 18.0154 19.5029 17.7263V17.7212C19.5029 17.6508 19.5031 17.5806 19.5033 17.5104C19.5036 17.3703 19.504 17.2304 19.5029 17.0898C19.5014 16.9814 19.5093 16.9338 19.4894 16.9132C19.47 16.8932 19.4241 16.8988 19.3171 16.8988C19.0465 16.8988 18.7761 16.899 18.5058 16.8992C17.9656 16.8995 17.4258 16.8999 16.886 16.8988C16.7771 16.8981 16.7302 16.9038 16.7106 16.8834C16.6909 16.8628 16.6987 16.8159 16.6987 16.7094V13.7987C16.6987 13.787 16.699 13.7751 16.6994 13.7631C16.7 13.7389 16.7007 13.7146 16.6987 13.6909C16.694 13.6339 16.7142 13.6047 16.7761 13.6093C16.7999 13.6114 16.8244 13.6107 16.8486 13.61C16.8607 13.6096 16.8727 13.6093 16.8845 13.6093H22.922H23.0304C23.0706 13.6093 23.1031 13.617 23.0985 13.6678C23.0957 13.6993 23.1152 13.72 23.1351 13.741C23.159 13.7662 23.1832 13.7919 23.1697 13.8372C23.158 13.8754 23.1609 13.9188 23.1639 13.9622C23.1653 13.9818 23.1666 14.0014 23.1666 14.0205C23.1666 14.3886 23.1666 14.7569 23.1665 15.1251C23.1662 16.5993 23.166 18.074 23.1697 19.5477C23.1697 19.6678 23.1325 19.7433 23.0412 19.8187C21.8969 20.7674 20.6101 21.4296 19.1545 21.7561C18.2936 21.9502 17.4218 22.0041 16.5407 21.9332C15.5002 21.8501 14.5122 21.5836 13.5971 21.0785C11.9201 20.1514 10.864 18.7438 10.3778 16.9065C10.1641 16.0949 10.0991 15.2679 10.1672 14.4332C10.4212 11.3393 12.5999 8.92295 15.5172 8.25149C16.3503 8.05899 17.1911 8.03127 18.0396 8.08825C18.69 8.13137 19.3295 8.23301 19.9551 8.41936C20.8935 8.69811 21.7203 9.1786 22.4714 9.79462L22.4716 9.79484C22.5582 9.86715 22.6449 9.93946 22.7315 10.0133C22.8383 10.1057 22.843 10.1581 22.7485 10.272L21.3255 11.9784C21.2267 12.0964 21.1284 12.2145 21.0303 12.3324C20.8915 12.4991 20.7529 12.6656 20.6132 12.8316C20.6053 12.8412 20.5976 12.8511 20.59 12.8611ZM37.3459 14.2346C36.9959 12.7038 35.7122 11.5996 33.7488 11.6042C32.7825 11.6258 31.7853 12.1771 31.1597 13.3275C30.7355 14.1083 30.6364 14.9507 30.7974 15.8209C30.9244 16.5077 31.2232 17.1145 31.7187 17.615C32.4914 18.3943 33.4375 18.6992 34.5215 18.576C35.6425 18.4482 36.4772 17.8753 37.0098 16.8912C37.4635 16.0534 37.5565 15.1571 37.3459 14.2346Z" fill="white"/>
<path d="M55.7759 0C70.5173 0 85.2587 0 100 0C100 9.94867 100 19.8973 100 29.846C99.9242 29.8214 99.8484 29.8352 99.7709 29.8352C85.1875 29.8352 70.6025 29.8352 56.019 29.8337C55.7527 29.8337 55.7898 29.8722 55.7898 29.6073C55.7898 19.8096 55.7898 10.0118 55.7883 0.212526C55.7883 0.141684 55.8022 0.0693019 55.7759 0ZM81.8211 8.49487C79.9893 8.49487 78.1574 8.49487 76.324 8.49487C76.2822 8.49487 76.242 8.49641 76.2002 8.49487C76.1382 8.49179 76.1181 8.52105 76.1212 8.57803C76.1227 8.60421 76.1212 8.62885 76.1212 8.65503C76.1212 9.69764 76.1212 10.7387 76.1212 11.7813C76.1212 11.9615 76.1088 11.9446 76.29 11.9446C77.4405 11.9446 78.591 11.9446 79.7431 11.9446C79.966 11.9446 79.966 11.9446 79.966 12.1602C79.966 15.3727 79.966 18.5868 79.966 21.7993C79.966 21.9764 79.9444 21.9625 80.1317 21.9641C80.1472 21.9641 80.1627 21.9641 80.1782 21.9641C81.2667 21.9641 82.3553 21.9641 83.4454 21.9641C83.6514 21.9641 83.6514 21.9641 83.6514 21.7639C83.6514 18.5513 83.6514 15.3373 83.6514 12.1247C83.6514 11.9292 83.6266 11.9461 83.8357 11.9461C85.0078 11.9461 86.1785 11.9461 87.3507 11.9461C87.504 11.9461 87.504 11.9446 87.504 11.7967C87.504 11.7813 87.504 11.7659 87.504 11.7505C87.504 10.7295 87.504 9.70842 87.504 8.68583C87.504 8.47177 87.5272 8.49641 87.3151 8.49641C85.4848 8.49487 83.6529 8.49487 81.8211 8.49487ZM68.9626 15.2218C68.9626 17.3932 68.9626 19.5631 68.9626 21.7346C68.9626 21.7762 68.9657 21.8162 68.9626 21.8578C68.9564 21.9317 68.9766 21.9779 69.0633 21.9656C69.0942 21.961 69.1252 21.9656 69.1562 21.9656C70.2556 21.9656 71.355 21.9656 72.4529 21.9656C72.6805 21.9656 72.648 21.9918 72.648 21.7685C72.648 17.4117 72.648 13.0534 72.648 8.69661C72.648 8.66581 72.6449 8.63501 72.648 8.60421C72.6557 8.52721 72.6294 8.48717 72.5458 8.49641C72.521 8.49949 72.4947 8.49641 72.4684 8.49641C71.3597 8.49641 70.2494 8.49641 69.1407 8.49641C68.9379 8.49641 68.9626 8.47177 68.9626 8.67813C68.9611 10.8588 68.9626 13.0395 68.9626 15.2218Z" fill="#FF6C00"/>
<path fill-rule="evenodd" clip-rule="evenodd" d="M20.2905 12.7946C20.3572 12.8488 20.4244 12.9032 20.4925 12.9578C20.5377 12.9303 20.5656 12.8927 20.5918 12.8573C20.598 12.8491 20.604 12.8409 20.6102 12.8331C20.8486 12.5497 21.0855 12.2648 21.3224 11.9799C21.7978 11.4116 22.2717 10.8433 22.7455 10.2735C22.8399 10.1596 22.8368 10.1072 22.7285 10.0148C22.6433 9.94087 22.5566 9.86848 22.4683 9.7961C21.7158 9.18008 20.8889 8.69959 19.9521 8.42084C19.3265 8.23604 18.687 8.1344 18.0366 8.08974C17.188 8.03275 16.3472 8.06048 15.5141 8.25298C12.5968 8.92444 10.4197 11.3392 10.1642 14.4347C10.0961 15.2694 10.1611 16.0964 10.3748 16.908C10.861 18.7453 11.9171 20.1529 13.5941 21.08C14.5076 21.5851 15.4971 21.8515 16.5377 21.9347C17.4188 22.0055 18.2906 21.9516 19.1515 21.7576C20.6071 21.4296 21.8938 20.7674 23.0382 19.8202C23.1295 19.7448 23.1667 19.6693 23.1667 19.5492C23.163 18.0758 23.1632 16.6015 23.1635 15.1277C23.1635 14.7591 23.1636 14.3905 23.1636 14.022C23.1636 14.0028 23.1622 13.9834 23.1609 13.964C23.1579 13.9209 23.1549 13.878 23.1667 13.8387C23.1803 13.7931 23.1557 13.767 23.1317 13.7415C23.112 13.7205 23.0926 13.6999 23.0954 13.6693C23.1016 13.6185 23.0676 13.6108 23.0273 13.6108H22.9189H16.8814C16.8696 13.6108 16.8576 13.6111 16.8456 13.6115C16.8213 13.6121 16.7969 13.6128 16.7731 13.6108C16.7111 13.6046 16.691 13.6354 16.6956 13.6924C16.6977 13.7161 16.697 13.7404 16.6963 13.7646C16.696 13.7765 16.6956 13.7885 16.6956 13.8002C16.6956 14.1236 16.6955 14.447 16.6953 14.7704C16.6949 15.4173 16.6946 16.0641 16.6956 16.7109C16.6956 16.8176 16.6878 16.8649 16.7077 16.8856C16.7274 16.906 16.7743 16.9003 16.883 16.9003H19.3141C19.4213 16.9003 19.4675 16.8947 19.4871 16.9148C19.507 16.9355 19.4991 16.9831 19.4999 17.0913C19.5009 17.2319 19.5006 17.3718 19.5002 17.5119C19.5001 17.5821 19.4999 17.6523 19.4999 17.7227V17.7278C19.4999 18.0169 19.4999 18.0191 19.2382 18.1447C18.4717 18.5112 17.6619 18.6159 16.8257 18.5112C15.8966 18.3957 15.1534 17.9568 14.6083 17.1975C14.2537 16.7032 14.0601 16.1457 13.9874 15.5451C13.896 14.7781 13.9889 14.0405 14.3373 13.3444C14.7569 12.5081 15.3918 11.9075 16.3039 11.6318C16.9434 11.4378 17.5906 11.4886 18.2317 11.6288C18.8124 11.755 19.3187 12.0384 19.7848 12.3942C19.9557 12.5232 20.1218 12.6579 20.2905 12.7946ZM39.0694 10.0196C37.6371 8.71671 35.9307 8.09608 34.167 8.08222C33.3525 8.08376 32.7439 8.14998 32.0982 8.31784C30.2246 8.80604 28.7582 9.85326 27.7842 11.5257C26.7839 13.2414 26.5811 15.0817 27.14 16.9744C27.7656 19.0904 29.0989 20.6305 31.1614 21.4883C32.7455 22.1459 34.3869 22.2336 36.0422 21.7994C37.9654 21.2958 39.4395 20.1823 40.4057 18.4451C41.2202 16.9806 41.4386 15.4097 41.1351 13.7696C40.8625 12.2958 40.1812 11.0329 39.0694 10.0196ZM31.1599 13.3276C31.7839 12.1772 32.7811 11.6259 33.7489 11.6043C35.7123 11.5997 36.996 12.7039 37.346 14.2347C37.5581 15.1572 37.4637 16.0535 37.01 16.8912C36.4757 17.8753 35.6427 18.4482 34.5216 18.5761C33.4377 18.7008 32.4915 18.3943 31.7189 17.6151C31.2233 17.1161 30.9245 16.5078 30.7975 15.8209C30.6365 14.9508 30.7356 14.1084 31.1599 13.3276Z" fill="#1C1B1B"/>
<path fill-rule="evenodd" clip-rule="evenodd" d="M87.3181 8.49492H81.821H81.8197C79.9883 8.49492 78.1569 8.49492 76.3271 8.49338C76.3131 8.49338 76.2993 8.49356 76.2855 8.49373C76.2581 8.49407 76.231 8.49441 76.2032 8.49338C76.1413 8.4903 76.1196 8.51957 76.1242 8.57655C76.1252 8.59394 76.1249 8.61066 76.1246 8.6276C76.1244 8.63615 76.1242 8.64476 76.1242 8.65355V11.7798C76.1242 11.869 76.1212 11.9099 76.1401 11.9285C76.1594 11.9474 76.2015 11.9431 76.293 11.9431H79.7461C79.8588 11.9431 79.9146 11.9431 79.9421 11.9709C79.9691 11.9982 79.9691 12.0521 79.9691 12.1587V21.7978C79.9691 21.8864 79.9636 21.9276 79.9817 21.9466C79.9997 21.9657 80.0411 21.9626 80.1348 21.9626H80.1812H83.4485C83.5524 21.9626 83.6039 21.9626 83.6294 21.9368C83.6544 21.9116 83.6544 21.8615 83.6544 21.7624V12.1233C83.6544 12.0262 83.6483 11.9814 83.6677 11.961C83.6875 11.9403 83.7334 11.9446 83.8387 11.9446H87.3537C87.5055 11.9446 87.5055 11.9446 87.507 11.7952V11.749V8.68435C87.507 8.57727 87.5128 8.52992 87.4921 8.50933C87.4714 8.48877 87.4241 8.49492 87.3181 8.49492ZM68.9626 8.67784V15.2215V21.7343C68.9626 21.7482 68.9629 21.7621 68.9633 21.776C68.964 21.8035 68.9646 21.8309 68.9626 21.8575C68.9564 21.933 68.9765 21.9776 69.0632 21.9653C69.0839 21.9633 69.1045 21.9639 69.1252 21.9646C69.1355 21.965 69.1458 21.9653 69.1561 21.9653C69.522 21.9653 69.888 21.9655 70.2541 21.9656C70.9867 21.966 71.7198 21.9663 72.4528 21.9653C72.5662 21.9653 72.615 21.9714 72.6355 21.9502C72.6561 21.9288 72.6479 21.8795 72.6479 21.7682V8.69632C72.6479 8.68605 72.6476 8.67578 72.6472 8.66552C72.6466 8.64498 72.6459 8.62445 72.6479 8.60391C72.6557 8.52691 72.6294 8.48687 72.5457 8.49611C72.5293 8.49816 72.5121 8.49748 72.4948 8.4968C72.486 8.49646 72.4771 8.49611 72.4683 8.49611C72.0988 8.49611 71.7291 8.49594 71.3594 8.49577C70.6197 8.49543 69.8798 8.49508 69.1407 8.49611C69.0398 8.49611 68.9952 8.49002 68.9759 8.50927C68.9563 8.52874 68.9626 8.5741 68.9626 8.67784Z" fill="white"/>
</g>
<defs>
<clipPath id="clip0">
<rect width="100" height="30" fill="white"/>
</clipPath>
</defs>
</svg>
