<svg aria-hidden="true" style="position: absolute; width: 0; height: 0; overflow: hidden;" version="1.1" xmlns="http://www.w3.org/2000/svg" xmlns:xlink="http://www.w3.org/1999/xlink">
<defs>
<symbol id="icon-youtube" viewBox="0 0 32 32">
<path d="M14.007 18.997l5.205-2.998-5.205-2.998v5.995z"></path>
<path d="M16 0c-8.835 0-16 7.165-16 16s7.165 16 16 16c8.835 0 16-7.165 16-16s-7.165-16-16-16zM25.998 16.016c0 0 0 3.245-0.412 4.81-0.231 0.856-0.906 1.532-1.762 1.762-1.565 0.412-7.824 0.412-7.824 0.412s-6.242 0-7.824-0.428c-0.856-0.23-1.532-0.906-1.762-1.762-0.412-1.548-0.412-4.809-0.412-4.809s0-3.245 0.412-4.809c0.23-0.856 0.922-1.548 1.762-1.779 1.565-0.412 7.824-0.412 7.824-0.412s6.259 0 7.824 0.428c0.856 0.23 1.532 0.906 1.762 1.762 0.428 1.565 0.412 4.826 0.412 4.826z"></path>
</symbol>
<symbol id="icon-facebook" viewBox="0 0 32 32">
<path d="M32 16c0-8.838-7.162-16-16-16s-16 7.162-16 16c0 8.838 7.162 16 16 16 0.094 0 0.188 0 0.281-0.006v-12.45h-3.438v-4.006h3.438v-2.95c0-3.419 2.087-5.281 5.137-5.281 1.463 0 2.719 0.106 3.081 0.156v3.575h-2.1c-1.656 0-1.981 0.787-1.981 1.944v2.55h3.969l-0.519 4.006h-3.45v11.844c6.688-1.919 11.581-8.075 11.581-15.381z"></path>
</symbol>
<symbol id="icon-telegram" viewBox="0 0 32 32">
<path d="M16 32c8.839 0 16-7.161 16-16s-7.161-16-16-16c-8.839 0-16 7.161-16 16s7.161 16 16 16zM7.321 15.653l15.427-5.948c0.716-0.259 1.341 0.175 1.109 1.257l0.001-0.001-2.627 12.375c-0.195 0.877-0.716 1.091-1.445 0.677l-4-2.948-1.929 1.859c-0.213 0.213-0.393 0.393-0.807 0.393l0.284-4.071 7.413-6.697c0.323-0.284-0.072-0.444-0.497-0.161l-9.161 5.768-3.949-1.232c-0.857-0.272-0.876-0.857 0.181-1.271z"></path>
</symbol>
<symbol id="icon-close" viewBox="0 0 32 32">
<path stroke-linejoin="miter" stroke-linecap="butt" stroke="#F9F5F2" stroke-miterlimit="4" stroke-width="2.6667" d="M29.199 2.801l-26.399 26.399"></path>
<path stroke-linejoin="miter" stroke-linecap="butt" stroke="#F9F5F2" stroke-miterlimit="4" stroke-width="2.6667" d="M2.801 2.801l26.399 26.399"></path>
</symbol>
<symbol id="icon-arrow-up" viewBox="0 0 32 32">
<path stroke-linejoin="miter" stroke-linecap="butt" stroke-miterlimit="4" stroke-width="2" d="M16 3v28M16 3l-15 15M16 3l15 15"></path>
</symbol>
<symbol id="icon-time" viewBox="0 0 31 32">
<path d="M13.524 9.957l-2.42 2.37-1.397-1.397c-0.136-0.134-0.321-0.209-0.512-0.208s-0.375 0.077-0.51 0.213-0.212 0.319-0.213 0.51c-0.001 0.191 0.074 0.376 0.208 0.512l1.905 1.905c0.135 0.135 0.318 0.212 0.51 0.213s0.375-0.073 0.512-0.207l2.933-2.873c0.068-0.067 0.122-0.146 0.16-0.234s0.057-0.182 0.058-0.277c0.001-0.095-0.017-0.19-0.052-0.278s-0.088-0.169-0.155-0.237-0.146-0.122-0.234-0.16c-0.088-0.037-0.182-0.057-0.277-0.058s-0.19 0.017-0.278 0.052c-0.088 0.036-0.169 0.088-0.237 0.155z"></path>
<path d="M30.564 22.311l-8.227-10.148c-0.106-0.131-0.255-0.22-0.42-0.254-0.355-2.609-1.644-5-3.628-6.732s-4.527-2.686-7.16-2.686c-6.003 0-10.887 4.884-10.887 10.887s4.884 10.887 10.887 10.887c1.929 0.003 3.825-0.509 5.49-1.484l5.3 6.538c0.121 0.15 0.297 0.245 0.488 0.265s0.383-0.037 0.532-0.158l7.518-6.094c0.149-0.121 0.245-0.297 0.265-0.488s-0.037-0.383-0.158-0.532zM11.129 22.814c-5.203 0-9.435-4.233-9.435-9.436s4.233-9.435 9.435-9.435c4.654 0 8.606 3.438 9.32 7.959l-1.471 0.009c-0.343-1.831-1.315-3.485-2.748-4.675s-3.238-1.842-5.101-1.842c-4.402 0-7.984 3.582-7.984 7.984s3.582 7.984 7.984 7.984c1.262 0.001 2.507-0.299 3.631-0.873l0.931 1.149c-1.396 0.773-2.966 1.178-4.563 1.176zM13.546 18.559c-0.023 0.106-0.022 0.216 0.003 0.322s0.074 0.205 0.142 0.289l0.13 0.16c-0.623 0.282-1.287 0.464-1.966 0.539v-1.169c0-0.193-0.076-0.377-0.213-0.513s-0.321-0.213-0.513-0.213c-0.192 0-0.377 0.076-0.513 0.213s-0.213 0.321-0.213 0.513v1.169c-1.472-0.167-2.843-0.828-3.891-1.875s-1.708-2.419-1.875-3.891h1.169c0.192 0 0.377-0.076 0.513-0.213s0.213-0.321 0.213-0.513c0-0.192-0.076-0.377-0.213-0.513s-0.321-0.213-0.513-0.213h-1.169c0.167-1.472 0.828-2.843 1.875-3.891s2.419-1.708 3.891-1.875v1.169c0 0.193 0.076 0.377 0.213 0.513s0.321 0.213 0.513 0.213c0.193 0 0.377-0.076 0.513-0.213s0.213-0.321 0.213-0.513v-1.17c1.348 0.146 2.617 0.71 3.63 1.613s1.717 2.1 2.015 3.423l-1.928 0.012c-0.165 0.001-0.324 0.058-0.452 0.162s-0.217 0.248-0.252 0.409l-1.321 6.054zM22.589 27.841l-7.551-9.314 1.123-5.146 5.267-0.034 7.551 9.314-6.39 5.18z"></path>
<path d="M20.58 17.635l-0.152-0.188c-0.121-0.15-0.297-0.245-0.488-0.265s-0.383 0.037-0.533 0.158c-0.15 0.121-0.245 0.297-0.265 0.488s0.037 0.383 0.158 0.533l0.157 0.194c-0.405 0.389-0.645 0.919-0.668 1.481s0.171 1.11 0.543 1.531c0.372 0.421 0.892 0.682 1.451 0.729s1.116-0.125 1.552-0.478l0.799-0.648c0.074-0.060 0.159-0.105 0.251-0.132s0.187-0.036 0.282-0.026c0.095 0.010 0.187 0.038 0.271 0.084s0.158 0.107 0.218 0.181l0.038 0.047c0.121 0.15 0.178 0.341 0.158 0.532s-0.115 0.367-0.264 0.488l-1.185 0.96c-0.022 0.018-0.047 0.031-0.074 0.039s-0.055 0.010-0.083 0.007-0.055-0.012-0.080-0.026c-0.025-0.014-0.046-0.032-0.063-0.055l-0.039-0.050c-0.058-0.076-0.131-0.14-0.214-0.187s-0.175-0.078-0.27-0.091-0.192-0.005-0.284 0.020c-0.092 0.025-0.179 0.069-0.254 0.128s-0.139 0.132-0.186 0.216c-0.047 0.084-0.077 0.175-0.088 0.271s-0.004 0.192 0.023 0.284 0.070 0.178 0.13 0.253l0.039 0.049c0.136 0.175 0.305 0.32 0.498 0.428s0.406 0.176 0.625 0.201c0.064 0.007 0.128 0.011 0.192 0.011 0.381 0 0.749-0.131 1.044-0.372l0.245-0.198 0.152 0.188c0.122 0.149 0.297 0.244 0.488 0.263s0.382-0.037 0.531-0.158c0.149-0.121 0.244-0.296 0.265-0.487s-0.036-0.382-0.157-0.532l-0.161-0.199c0.375-0.382 0.597-0.888 0.623-1.423s-0.146-1.060-0.482-1.477l-0.038-0.047c-0.18-0.222-0.402-0.407-0.654-0.543s-0.527-0.222-0.811-0.252c-0.285-0.030-0.572-0.003-0.846 0.078s-0.53 0.216-0.752 0.396l-0.799 0.648c-0.15 0.121-0.341 0.178-0.533 0.158s-0.367-0.115-0.488-0.265c-0.121-0.15-0.178-0.341-0.158-0.533s0.115-0.367 0.265-0.488l1.165-0.944c0.022-0.018 0.048-0.031 0.075-0.039s0.056-0.010 0.085-0.006c0.029 0.003 0.056 0.013 0.081 0.027s0.046 0.034 0.063 0.057c0.115 0.155 0.286 0.257 0.477 0.286s0.384-0.020 0.539-0.135c0.155-0.115 0.257-0.286 0.286-0.477s-0.020-0.384-0.135-0.539c-0.134-0.18-0.303-0.332-0.496-0.445s-0.409-0.186-0.631-0.214c-0.223-0.028-0.449-0.011-0.665 0.051s-0.417 0.166-0.591 0.308l-0.179 0.144z"></path>
<path d="M18.883 15.586c-0.090-0.111-0.212-0.194-0.349-0.236s-0.284-0.043-0.421-0.003c-0.138 0.041-0.26 0.122-0.352 0.232s-0.149 0.246-0.164 0.388c-0.015 0.143 0.013 0.287 0.080 0.414s0.17 0.231 0.296 0.3c0.126 0.068 0.27 0.098 0.413 0.085s0.279-0.068 0.39-0.159c0.15-0.121 0.245-0.297 0.265-0.488s-0.037-0.383-0.158-0.533z"></path>
</symbol>
<symbol id="icon-list" viewBox="0 0 32 32">
<path d="M24.805 4.623h-2.728v-1.233c0-0.399-0.431-0.58-0.826-0.58h-2.118c-0.503-1.451-1.759-2.177-3.195-2.177-1.42-0.054-2.711 0.826-3.194 2.177h-2.082c-0.395 0-0.79 0.181-0.79 0.58v1.233h-2.728c-1.617 0.017-2.939 1.306-3.015 2.939v20.787c0 1.596 1.436 2.757 3.015 2.757h17.66c1.579 0 3.015-1.161 3.015-2.757v-20.787c-0.076-1.632-1.399-2.921-3.015-2.939zM11.309 4.26h1.974c0.345-0.043 0.621-0.307 0.682-0.653 0.213-0.936 1.025-1.607 1.974-1.633 0.941 0.029 1.741 0.702 1.938 1.633 0.064 0.357 0.359 0.626 0.718 0.653h2.046v2.902h-9.332v-2.902zM26.385 28.349c0 0.798-0.79 1.306-1.579 1.306h-17.66c-0.79 0-1.579-0.508-1.579-1.306v-20.788c0.073-0.831 0.754-1.472 1.579-1.487h2.728v1.85c0.038 0.406 0.386 0.711 0.79 0.689h10.589c0.411 0.023 0.77-0.277 0.825-0.689v-1.85h2.728c0.825 0.015 1.506 0.657 1.579 1.487v20.788z"></path>
<path d="M13.212 16.849c-0.269-0.287-0.716-0.303-1.005-0.036l-2.297 2.213-0.969-1.016c-0.269-0.287-0.716-0.303-1.005-0.036-0.278 0.294-0.278 0.758 0 1.052l1.472 1.524c0.127 0.144 0.311 0.224 0.502 0.218 0.189-0.003 0.37-0.081 0.502-0.218l2.8-2.684c0.278-0.257 0.296-0.694 0.041-0.974-0.013-0.015-0.027-0.029-0.041-0.042z"></path>
<path d="M23.513 18.409h-8.256c-0.397 0-0.718 0.325-0.718 0.726s0.321 0.726 0.718 0.726h8.256c0.396 0 0.718-0.325 0.718-0.726s-0.321-0.726-0.718-0.726z"></path>
<path d="M13.212 11.045c-0.269-0.287-0.716-0.303-1.005-0.036l-2.297 2.213-0.969-1.016c-0.269-0.287-0.716-0.303-1.005-0.036-0.278 0.294-0.278 0.758 0 1.052l1.472 1.524c0.127 0.144 0.311 0.224 0.502 0.218 0.189-0.003 0.37-0.081 0.502-0.218l2.8-2.685c0.278-0.257 0.296-0.693 0.041-0.974-0.013-0.015-0.027-0.029-0.041-0.042z"></path>
<path d="M23.513 12.604h-8.256c-0.397 0-0.718 0.325-0.718 0.726s0.321 0.726 0.718 0.726h8.256c0.396 0 0.718-0.325 0.718-0.726s-0.321-0.726-0.718-0.726z"></path>
<path d="M13.212 22.653c-0.269-0.287-0.716-0.303-1.005-0.036l-2.297 2.213-0.969-1.016c-0.269-0.287-0.716-0.303-1.005-0.036-0.278 0.295-0.278 0.758 0 1.052l1.472 1.524c0.127 0.144 0.311 0.224 0.502 0.218 0.189-0.003 0.37-0.081 0.502-0.218l2.8-2.685c0.278-0.257 0.296-0.693 0.041-0.974-0.013-0.014-0.027-0.029-0.041-0.042z"></path>
<path d="M23.513 24.213h-8.256c-0.397 0-0.718 0.325-0.718 0.726s0.321 0.726 0.718 0.726h8.256c0.396 0 0.718-0.325 0.718-0.726s-0.321-0.726-0.718-0.726z"></path>
</symbol>
<symbol id="icon-6" viewBox="0 0 32 32" fill="none">
<rect x="0.82959" y="0.75" width="28.5" height="28.5" rx="3.25" stroke="#FF6C00" stroke-width="1.5"/>
<path d="M5.67969 14.0599L5.67969 15.2749H9.55719V26.3749H12.3247V15.2749H16.2247V14.0749C16.2247 13.3999 16.2247 12.8524 16.1947 12.8374C16.1947 12.8149 13.8172 12.8074 10.9297 12.8074L5.67969 12.8299V14.0599ZM23.1847 12.7999C23.9497 12.9799 24.5347 13.3249 25.0597 13.8724C25.3372 14.1724 25.7497 14.6974 25.7797 14.8324C25.7797 14.8774 24.4822 15.7549 23.6947 16.2424C23.6647 16.2649 23.5447 16.1374 23.4247 15.9424C23.0347 15.3874 22.6372 15.1474 22.0147 15.1024C21.1147 15.0424 20.5147 15.5149 20.5147 16.3024C20.5147 16.5424 20.5597 16.6774 20.6497 16.8724C20.8522 17.2849 21.2272 17.5324 22.3897 18.0424C24.5347 18.9649 25.4647 19.5724 26.0272 20.4424C26.6647 21.4174 26.8072 22.9474 26.3797 24.0949C25.8997 25.3474 24.7297 26.1949 23.0572 26.4724C22.5322 26.5624 21.3322 26.5474 20.7697 26.4499C19.5697 26.2249 18.4222 25.6249 17.7172 24.8524C17.4397 24.5524 16.9072 23.7499 16.9372 23.6974L17.2222 23.5174L18.3472 22.8649L19.1947 22.3699L19.3897 22.6324C19.6372 23.0224 20.1922 23.5474 20.5147 23.7274C21.4897 24.2299 22.7947 24.1624 23.4397 23.5774C23.7172 23.3224 23.8372 23.0524 23.8372 22.6774C23.8372 22.3324 23.7847 22.1749 23.6122 21.9124C23.3722 21.5824 22.8922 21.3124 21.5422 20.7124C19.9897 20.0524 19.3297 19.6324 18.7147 18.9874C18.3622 18.5974 18.0397 17.9899 17.8897 17.4874C17.7772 17.0524 17.7397 15.9874 17.8447 15.5599C18.1672 14.0599 19.2997 13.0099 20.9197 12.7099C21.4447 12.6049 22.6822 12.6499 23.1997 12.7849L23.1847 12.7999Z" stroke="#FF6C00" stroke-width="1.5"/>
</symbol>
<symbol id="icon-5" viewBox="0 0 32 32">
<path d="M15.525 18.601c1.524 0 2.76-1.236 2.76-2.76s-1.236-2.76-2.76-2.76c-1.524 0-2.76 1.236-2.76 2.76s1.236 2.76 2.76 2.76z"></path>
<path d="M2.34 14.151c-0.664 0.6-0.937 1.172-0.937 1.69s0.272 1.090 0.937 1.69c0.664 0.6 1.664 1.171 2.958 1.665 2.583 0.986 6.199 1.611 10.227 1.611s7.643-0.625 10.227-1.611c1.294-0.494 2.294-1.066 2.958-1.665s0.937-1.172 0.937-1.69-0.272-1.090-0.937-1.69c-0.664-0.6-1.664-1.171-2.958-1.665-2.584-0.986-6.199-1.611-10.227-1.611s-7.644 0.625-10.227 1.611c-1.294 0.494-2.294 1.066-2.958 1.665zM4.806 11.199c2.777-1.060 6.567-1.702 10.718-1.702s7.941 0.641 10.718 1.702c1.386 0.529 2.555 1.176 3.39 1.93s1.391 1.669 1.391 2.712c0 1.044-0.557 1.959-1.391 2.712s-2.004 1.401-3.39 1.93c-2.777 1.060-6.567 1.702-10.718 1.702s-7.942-0.641-10.718-1.702c-1.386-0.529-2.555-1.176-3.39-1.93s-1.391-1.669-1.391-2.712c0-1.043 0.557-1.959 1.391-2.712s2.004-1.4 3.39-1.93z"></path>
<path d="M10.396 3.577c-0.851-0.275-1.483-0.225-1.932 0.034s-0.808 0.781-0.995 1.656c-0.187 0.875-0.182 2.027 0.037 3.395 0.437 2.731 1.704 6.174 3.718 9.662s4.363 6.307 6.509 8.051c1.075 0.874 2.070 1.454 2.921 1.729s1.483 0.225 1.932-0.034c0.449-0.259 0.808-0.781 0.995-1.656s0.182-2.027-0.037-3.394c-0.437-2.731-1.704-6.174-3.718-9.662s-4.363-6.307-6.509-8.051c-1.075-0.874-2.070-1.454-2.921-1.729zM14.186 4.237c2.307 1.875 4.757 4.836 6.833 8.432s3.415 7.198 3.886 10.133c0.235 1.465 0.259 2.801 0.024 3.901s-0.75 2.039-1.653 2.561c-0.904 0.522-1.975 0.498-3.045 0.152s-2.215-1.035-3.366-1.971c-2.307-1.875-4.757-4.836-6.833-8.432s-3.415-7.198-3.886-10.133c-0.235-1.465-0.259-2.801-0.024-3.901s0.75-2.039 1.654-2.561 1.975-0.498 3.045-0.151c1.070 0.346 2.215 1.035 3.366 1.971z"></path>
<path d="M23.581 5.267c-0.187-0.875-0.547-1.397-0.995-1.656s-1.080-0.309-1.932-0.034c-0.851 0.275-1.846 0.856-2.921 1.729-2.146 1.744-4.495 4.563-6.509 8.051s-3.281 6.932-3.718 9.662c-0.219 1.368-0.224 2.519-0.037 3.394s0.547 1.397 0.995 1.656 1.080 0.309 1.932 0.034c0.851-0.276 1.846-0.856 2.921-1.729 2.146-1.744 4.495-4.563 6.509-8.051s3.281-6.932 3.718-9.662c0.219-1.368 0.224-2.519 0.037-3.395zM24.904 8.879c-0.47 2.935-1.81 6.538-3.886 10.133s-4.526 6.557-6.833 8.432c-1.151 0.936-2.296 1.625-3.366 1.971s-2.141 0.37-3.045-0.151-1.418-1.461-1.654-2.561c-0.235-1.1-0.211-2.436 0.024-3.901 0.47-2.935 1.81-6.538 3.886-10.133s4.526-6.557 6.833-8.432c1.151-0.936 2.296-1.625 3.366-1.971s2.141-0.37 3.045 0.151c0.904 0.522 1.418 1.462 1.654 2.561s0.211 2.436-0.024 3.901z"></path>
</symbol>
<symbol id="icon-4" viewBox="0 0 32 32">
<path d="M31.545 9.196l-15.061-9.062c-0.297-0.179-0.669-0.179-0.967 0l-15.061 9.062c-0.444 0.267-0.587 0.843-0.32 1.287s0.843 0.587 1.287 0.32l14.578-8.771 14.578 8.771c0.151 0.091 0.318 0.134 0.482 0.134 0.318 0 0.628-0.162 0.804-0.454 0.267-0.444 0.124-1.020-0.32-1.287z"></path>
<path d="M29.062 22.936h-1.151v-6.738c0-0.902-0.734-1.637-1.637-1.637h-8.637c-0.902 0-1.637 0.734-1.637 1.637v0.793c-0.52-0.406-1.091-0.74-1.698-0.994 0.86-0.781 1.401-1.908 1.401-3.159 0-2.353-1.915-4.268-4.268-4.268s-4.268 1.915-4.268 4.268c0 1.25 0.54 2.376 1.4 3.158-2.66 1.111-4.535 3.739-4.535 6.797v0.142h-1.094c-0.518 0-0.937 0.42-0.937 0.938s0.42 0.937 0.937 0.937h0.812v6.252c0 0.518 0.42 0.938 0.937 0.938s0.937-0.42 0.937-0.938v-6.252h20.748v6.25c0 0.518 0.42 0.937 0.937 0.937s0.938-0.42 0.938-0.937v-6.25h0.812c0.518 0 0.938-0.42 0.938-0.937s-0.42-0.938-0.937-0.938zM17.875 16.436h8.16v6.483h-8.16v-6.483zM11.435 10.446c1.319 0 2.393 1.073 2.393 2.393s-1.073 2.393-2.393 2.393c-1.319 0-2.393-1.073-2.393-2.393s1.073-2.393 2.393-2.393zM5.907 22.794c0-3.026 2.462-5.487 5.487-5.487h0.082c1.805 0 3.494 0.893 4.524 2.389v3.241h-10.093v-0.142z"></path>
</symbol>
<symbol id="icon-3" viewBox="0 0 32 32">
<path d="M30.148 6.020c-0.002 0-0.004-0-0.006-0h-8.226v-0.907c0-1.501-1.221-2.722-2.722-2.722h-7.258c-1.501 0-2.722 1.221-2.722 2.722v0.907h-8.226c-0.505 0-0.907 0.414-0.907 0.907v19.96c0 1.501 1.221 2.722 2.722 2.722h25.524c1.501 0 2.722-1.221 2.722-2.722v-19.941c0-0.001 0-0.002 0-0.004-0.035-0.596-0.401-0.919-0.902-0.923zM11.030 5.113c0-0.5 0.407-0.907 0.907-0.907h7.258c0.5 0 0.907 0.407 0.907 0.907v0.907h-9.073v-0.907zM28.884 7.835l-2.817 8.452c-0.124 0.371-0.469 0.62-0.861 0.62h-5.104v-0.907c0-0.501-0.406-0.907-0.907-0.907h-7.258c-0.501 0-0.907 0.406-0.907 0.907v0.907h-5.104c-0.391 0-0.737-0.249-0.86-0.62l-2.817-8.452h26.636zM18.288 16.907v1.814h-5.444v-1.814h5.444zM29.235 26.887c0 0.5-0.407 0.907-0.907 0.907h-25.524c-0.5 0-0.907-0.407-0.907-0.907v-14.369l1.448 4.342c0.371 1.113 1.409 1.861 2.582 1.861h5.104v0.907c0 0.501 0.406 0.907 0.907 0.907h7.258c0.501 0 0.907-0.406 0.907-0.907v-0.907h5.104c1.173 0 2.211-0.748 2.582-1.861l1.448-4.343v14.369z"></path>
</symbol>
<symbol id="icon-2" viewBox="0 0 32 32">
<path d="M30.102 27.855h-12.011c-0.274-0.772-0.886-1.385-1.658-1.659v-2.091h8.165c1.501 0 2.722-1.221 2.722-2.722v-3.629c0-0.697-0.263-1.333-0.695-1.815 0.432-0.482 0.695-1.118 0.695-1.815v-3.629c0-0.697-0.263-1.333-0.695-1.815 0.432-0.482 0.695-1.118 0.695-1.815v-3.629c0-1.501-1.221-2.722-2.722-2.722h-18.145c-1.501 0-2.722 1.221-2.722 2.722v3.629c0 0.697 0.263 1.333 0.695 1.815-0.432 0.482-0.695 1.118-0.695 1.815v3.629c0 0.697 0.263 1.333 0.695 1.815-0.432 0.482-0.695 1.118-0.695 1.815v3.629c0 1.501 1.221 2.722 2.722 2.722h8.165v2.091c-0.772 0.274-1.385 0.887-1.659 1.659h-12.011c-0.501 0-0.907 0.406-0.907 0.907s0.406 0.907 0.907 0.907h12.011c0.375 1.056 1.383 1.814 2.566 1.814s2.191-0.759 2.566-1.814h12.011c0.501 0 0.907-0.406 0.907-0.907s-0.406-0.907-0.907-0.907zM5.545 3.238c0-0.5 0.407-0.907 0.907-0.907h18.145c0.5 0 0.907 0.407 0.907 0.907v3.629c0 0.5-0.407 0.907-0.907 0.907h-18.145c-0.5 0-0.907-0.407-0.907-0.907v-3.629zM5.545 10.496c0-0.5 0.407-0.907 0.907-0.907h18.145c0.5 0 0.907 0.407 0.907 0.907v3.629c0 0.5-0.407 0.907-0.907 0.907h-18.145c-0.5 0-0.907-0.407-0.907-0.907v-3.629zM6.452 22.29c-0.5 0-0.907-0.407-0.907-0.907v-3.629c0-0.5 0.407-0.907 0.907-0.907h18.145c0.5 0 0.907 0.407 0.907 0.907v3.629c0 0.5-0.407 0.907-0.907 0.907h-18.145zM15.525 29.669c-0.5 0-0.907-0.407-0.907-0.907s0.407-0.907 0.907-0.907c0.5 0 0.907 0.407 0.907 0.907s-0.407 0.907-0.907 0.907z"></path>
</symbol>
<symbol id="icon-1" viewBox="0 0 32 32">
<path d="M22.173 21.749c1.181-0.122 2.077-1.14 2.036-2.362s-1.059-2.199-2.28-2.199h-0.081c-1.262 0.041-2.24 1.1-2.199 2.362 0.041 0.611 0.285 1.14 0.652 1.507-1.385 2.728-3.502 4.724-6.678 6.393-2.158 1.14-4.398 1.547-6.638 1.262-1.832-0.244-3.258-1.059-4.154-2.403-1.303-1.995-1.425-4.154-0.326-6.312 0.774-1.547 1.995-2.688 2.769-3.258-0.163-0.529-0.407-1.425-0.529-2.077-5.905 4.276-5.294 10.058-3.502 12.786 1.344 2.036 4.072 3.298 7.086 3.298 0.814 0 1.629-0.081 2.443-0.285 5.212-1.018 9.162-4.113 11.402-8.714z"></path>
<path d="M29.339 16.7c-3.095-3.624-7.656-5.62-12.868-5.62h-0.652c-0.367-0.733-1.14-1.222-1.995-1.222h-0.082c-1.262 0.041-2.24 1.099-2.199 2.362 0.041 1.222 1.059 2.199 2.28 2.199h0.081c0.896-0.041 1.67-0.611 1.995-1.385h0.733c3.095 0 6.027 0.896 8.674 2.647 2.036 1.344 3.502 3.095 4.316 5.212 0.692 1.71 0.652 3.38-0.081 4.805-1.14 2.158-3.054 3.339-5.579 3.339-1.629 0-3.176-0.489-3.991-0.855-0.448 0.407-1.262 1.059-1.833 1.466 1.751 0.814 3.543 1.262 5.253 1.262 3.909 0 6.8-2.158 7.9-4.316 1.181-2.362 1.1-6.434-1.955-9.895z"></path>
<path d="M8.653 22.442c0.041 1.222 1.059 2.199 2.28 2.199h0.081c1.262-0.041 2.24-1.1 2.199-2.362-0.041-1.222-1.059-2.199-2.28-2.199h-0.082c-0.081 0-0.204 0-0.285 0.041-1.67-2.769-2.362-5.782-2.117-9.040 0.163-2.443 0.977-4.561 2.403-6.312 1.181-1.507 3.461-2.24 5.009-2.28 4.316-0.081 6.149 5.294 6.271 7.452 0.529 0.122 1.425 0.407 2.036 0.611-0.489-6.597-4.561-10.017-8.47-10.017-3.665 0-7.045 2.647-8.389 6.556-1.873 5.212-0.652 10.221 1.629 14.171-0.204 0.285-0.326 0.733-0.285 1.181z"></path>
</symbol>
<symbol id="icon-plus" viewBox="0 0 32 32">
<path stroke-linejoin="miter" stroke-linecap="butt" stroke-miterlimit="4" stroke-width="2.2857" d="M16 0v32"></path>
<path stroke-linejoin="miter" stroke-linecap="butt" stroke-miterlimit="4" stroke-width="2.2857" d="M0 16h32"></path>
</symbol>
</defs>
</svg>
