<svg  viewBox="0 0 31 30" fill="none" xmlns="http://www.w3.org/2000/svg">
<rect x="0.82959" y="0.75" width="28.5" height="28.5" rx="3.25" stroke="#FF6C00" stroke-width="1.5"/>
<path d="M5.67969 14.0599L5.67969 15.2749H9.55719V26.3749H12.3247V15.2749H16.2247V14.0749C16.2247 13.3999 16.2247 12.8524 16.1947 12.8374C16.1947 12.8149 13.8172 12.8074 10.9297 12.8074L5.67969 12.8299V14.0599ZM23.1847 12.7999C23.9497 12.9799 24.5347 13.3249 25.0597 13.8724C25.3372 14.1724 25.7497 14.6974 25.7797 14.8324C25.7797 14.8774 24.4822 15.7549 23.6947 16.2424C23.6647 16.2649 23.5447 16.1374 23.4247 15.9424C23.0347 15.3874 22.6372 15.1474 22.0147 15.1024C21.1147 15.0424 20.5147 15.5149 20.5147 16.3024C20.5147 16.5424 20.5597 16.6774 20.6497 16.8724C20.8522 17.2849 21.2272 17.5324 22.3897 18.0424C24.5347 18.9649 25.4647 19.5724 26.0272 20.4424C26.6647 21.4174 26.8072 22.9474 26.3797 24.0949C25.8997 25.3474 24.7297 26.1949 23.0572 26.4724C22.5322 26.5624 21.3322 26.5474 20.7697 26.4499C19.5697 26.2249 18.4222 25.6249 17.7172 24.8524C17.4397 24.5524 16.9072 23.7499 16.9372 23.6974L17.2222 23.5174L18.3472 22.8649L19.1947 22.3699L19.3897 22.6324C19.6372 23.0224 20.1922 23.5474 20.5147 23.7274C21.4897 24.2299 22.7947 24.1624 23.4397 23.5774C23.7172 23.3224 23.8372 23.0524 23.8372 22.6774C23.8372 22.3324 23.7847 22.1749 23.6122 21.9124C23.3722 21.5824 22.8922 21.3124 21.5422 20.7124C19.9897 20.0524 19.3297 19.6324 18.7147 18.9874C18.3622 18.5974 18.0397 17.9899 17.8897 17.4874C17.7772 17.0524 17.7397 15.9874 17.8447 15.5599C18.1672 14.0599 19.2997 13.0099 20.9197 12.7099C21.4447 12.6049 22.6822 12.6499 23.1997 12.7849L23.1847 12.7999Z" stroke="#FF6C00" stroke-width="1.5"/>
</svg>
