<svg width="31" height="27" viewBox="0 0 31 27" fill="none" xmlns="http://www.w3.org/2000/svg">
<g clip-path="url(#clip0)">
<path d="M15.0399 16.0197C16.5166 16.0197 17.7138 14.8225 17.7138 13.3458C17.7138 11.869 16.5166 10.6719 15.0399 10.6719C13.5631 10.6719 12.366 11.869 12.366 13.3458C12.366 14.8225 13.5631 16.0197 15.0399 16.0197Z" fill="#FF6C00"/>
<path fill-rule="evenodd" clip-rule="evenodd" d="M2.2666 11.7087C1.62306 12.2896 1.35923 12.8439 1.35923 13.3457C1.35923 13.8475 1.62306 14.4019 2.2666 14.9828C2.91008 15.5637 3.87867 16.1174 5.13235 16.5961C7.63512 17.5517 11.1377 18.1567 15.0398 18.1567C18.9418 18.1567 22.4444 17.5517 24.9472 16.5961C26.2009 16.1174 27.1695 15.5637 27.8129 14.9828C28.4565 14.4019 28.7203 13.8475 28.7203 13.3457C28.7203 12.8439 28.4565 12.2896 27.8129 11.7087C27.1695 11.1278 26.2009 10.5741 24.9472 10.0954C22.4444 9.13982 18.9418 8.53477 15.0398 8.53477C11.1377 8.53477 7.63512 9.13982 5.13235 10.0954C3.87867 10.5741 2.91008 11.1278 2.2666 11.7087ZM4.6563 8.84864C7.34642 7.8215 11.0177 7.2002 15.0398 7.2002C19.0618 7.2002 22.7331 7.8215 25.4232 8.84864C26.766 9.36133 27.8986 9.98809 28.7072 10.718C29.5157 11.4479 30.0549 12.3348 30.0549 13.3457C30.0549 14.3567 29.5157 15.2436 28.7072 15.9734C27.8986 16.7034 26.766 17.3302 25.4232 17.8429C22.7331 18.87 19.0618 19.4913 15.0398 19.4913C11.0177 19.4913 7.34642 18.87 4.6563 17.8429C3.31354 17.3302 2.18094 16.7034 1.37233 15.9734C0.5638 15.2436 0.0246582 14.3567 0.0246582 13.3457C0.0246582 12.3348 0.5638 11.4479 1.37233 10.718C2.18094 9.98809 3.31354 9.36133 4.6563 8.84864Z" fill="#FF6C00"/>
<path fill-rule="evenodd" clip-rule="evenodd" d="M10.071 1.46536C9.24612 1.1985 8.63414 1.24718 8.19958 1.49808C7.76501 1.74898 7.41686 2.25462 7.23552 3.10242C7.05421 3.95012 7.05898 5.0658 7.27127 6.39086C7.69508 9.03612 8.9224 12.372 10.8734 15.7513C12.8244 19.1305 15.0997 21.8614 17.1787 23.551C18.2201 24.3974 19.1839 24.9594 20.0087 25.2262C20.8336 25.4931 21.4456 25.4444 21.8801 25.1935C22.3147 24.9426 22.6628 24.4369 22.8442 23.5891C23.0255 22.7414 23.0207 21.6258 22.8084 20.3007C22.3846 17.6554 21.1573 14.3196 19.2063 10.9403C17.2553 7.56103 14.98 4.8302 12.901 3.14053C11.8596 2.29415 10.8958 1.73218 10.071 1.46536ZM13.7427 2.10488C15.9773 3.92102 18.351 6.7898 20.362 10.273C22.3731 13.7562 23.6707 17.2463 24.1262 20.0896C24.3536 21.5088 24.3771 22.803 24.1492 23.8683C23.9214 24.9334 23.4229 25.8438 22.5474 26.3492C21.6719 26.8547 20.6343 26.8313 19.5979 26.496C18.5615 26.1607 17.4524 25.4932 16.337 24.5867C14.1024 22.7705 11.7287 19.9017 9.71765 16.4186C7.70662 12.9354 6.40904 9.44527 5.9535 6.60198C5.72613 5.18277 5.70262 3.88853 5.93047 2.82328C6.15829 1.75813 6.65675 0.847799 7.53229 0.342306C8.40783 -0.163188 9.44543 -0.139698 10.4818 0.195573C11.5182 0.530874 12.6273 1.19835 13.7427 2.10488Z" fill="#FF6C00"/>
<path fill-rule="evenodd" clip-rule="evenodd" d="M22.8442 3.10238C22.6629 2.25458 22.3147 1.74894 21.8801 1.49804C21.4456 1.24714 20.8336 1.19846 20.0087 1.46531C19.1839 1.73214 18.2201 2.29411 17.1787 3.14049C15.0998 4.83016 12.8245 7.56099 10.8734 10.9402C8.92243 14.3195 7.69511 17.6554 7.2713 20.3007C7.059 21.6257 7.05423 22.7414 7.23555 23.5891C7.41688 24.4369 7.76503 24.9425 8.1996 25.1934C8.63417 25.4443 9.24615 25.493 10.071 25.2262C10.8958 24.9593 11.8596 24.3974 12.901 23.551C14.98 21.8613 17.2553 19.1305 19.2063 15.7512C21.1573 12.372 22.3846 9.03608 22.8084 6.39082C23.0207 5.06576 23.0255 3.95008 22.8442 3.10238ZM24.1262 6.60194C23.6707 9.44522 22.3731 12.9353 20.3621 16.4185C18.351 19.9017 15.9773 22.7705 13.7427 24.5866C12.6274 25.4932 11.5183 26.1606 10.4818 26.4959C9.44545 26.8312 8.40785 26.8547 7.53231 26.3492C6.65677 25.8437 6.15832 24.9334 5.93049 23.8682C5.70264 22.803 5.72615 21.5087 5.95353 20.0895C6.40906 17.2462 7.70665 13.7562 9.71767 10.273C11.7287 6.78976 14.1024 3.92098 16.337 2.10483C17.4524 1.19831 18.5615 0.530833 19.5979 0.195532C20.6343 -0.139739 21.6719 -0.163228 22.5474 0.342265C23.423 0.847758 23.9214 1.75809 24.1493 2.82324C24.3771 3.88848 24.3536 5.18273 24.1262 6.60194Z" fill="#FF6C00"/>
</g>
<defs>
<clipPath id="clip0">
<rect width="30" height="26.6915" fill="white" transform="translate(0.0397949)"/>
</clipPath>
</defs>
</svg>
