<svg width="30" height="30" viewBox="0 0 30 30" fill="none" xmlns="http://www.w3.org/2000/svg">
<path d="M29.5732 8.62123L15.4532 0.125806C15.1744 -0.0419354 14.8257 -0.0419354 14.5469 0.125806L0.426871 8.62123C0.0109437 8.87146 -0.123343 9.41142 0.126951 9.82735C0.377128 10.2433 0.917089 10.3776 1.33308 10.1273L15.0001 1.90453L28.6671 10.1273C28.8089 10.2127 28.9651 10.2532 29.1193 10.2532C29.4176 10.2532 29.7083 10.1014 29.8732 9.82735C30.1234 9.41148 29.9892 8.87146 29.5732 8.62123Z" fill="#FF6C00"/>
<path d="M27.2453 21.5024H26.1659V15.1857C26.1659 14.3398 25.4777 13.6514 24.6316 13.6514H16.5343C15.6883 13.6514 15 14.3397 15 15.1857V15.9293C14.5123 15.5484 13.9769 15.2352 13.4083 14.9979C14.2146 14.2654 14.7217 13.209 14.7217 12.0364C14.7217 9.83029 12.9268 8.0354 10.7207 8.0354C8.51452 8.0354 6.71963 9.83029 6.71963 12.0364C6.71963 13.2084 7.22614 14.2642 8.03168 14.9967C5.53759 16.0379 3.78014 18.502 3.78014 21.3691V21.5024H2.75482C2.26946 21.5024 1.87598 21.8959 1.87598 22.3813C1.87598 22.8666 2.26946 23.2601 2.75482 23.2601H3.51648V29.1212C3.51648 29.6066 3.90997 30.0001 4.39533 30.0001C4.88068 30.0001 5.27417 29.6066 5.27417 29.1212V23.2601H24.7259V29.1195C24.7259 29.6048 25.1194 29.9983 25.6047 29.9983C26.0901 29.9983 26.4836 29.6048 26.4836 29.1195V23.2601H27.2452C27.7306 23.2601 28.1241 22.8666 28.1241 22.3813C28.1241 21.8959 27.7307 21.5024 27.2453 21.5024ZM16.7578 15.4091H24.4082V21.4869H16.7578V15.4091ZM10.7207 9.79309C11.9577 9.79309 12.9641 10.7995 12.9641 12.0364C12.9641 13.2734 11.9577 14.2798 10.7207 14.2798C9.48377 14.2798 8.47738 13.2734 8.47738 12.0364C8.47732 10.7994 9.48371 9.79309 10.7207 9.79309ZM5.53788 21.3691C5.53788 18.5325 7.8456 16.2248 10.6822 16.2248H10.7592C12.4515 16.2248 14.0349 17.0617 15.0001 18.4644V21.5024H5.53788V21.3691Z" fill="#FF6C00"/>
</svg>
