<svg width="31" height="30" viewBox="0 0 31 30" fill="none" xmlns="http://www.w3.org/2000/svg">
<path d="M29.1609 26.4844H17.5253C17.2601 25.7365 16.6666 25.143 15.9187 24.8777V22.8516H23.8289C25.2827 22.8516 26.4656 21.6687 26.4656 20.2148V16.6992C26.4656 16.0244 26.2105 15.4083 25.792 14.9414C26.2105 14.4745 26.4656 13.8584 26.4656 13.1836V9.66797C26.4656 8.99314 26.2105 8.37703 25.792 7.91016C26.2105 7.44328 26.4656 6.82717 26.4656 6.15234V2.63672C26.4656 1.18283 25.2827 0 23.8289 0H6.25073C4.79685 0 3.61401 1.18283 3.61401 2.63672V6.15234C3.61401 6.82717 3.86913 7.44328 4.28755 7.91016C3.86913 8.37703 3.61401 8.99314 3.61401 9.66797V13.1836C3.61401 13.8584 3.86913 14.4745 4.28755 14.9414C3.86913 15.4083 3.61401 16.0244 3.61401 16.6992V20.2148C3.61401 21.6687 4.79685 22.8516 6.25073 22.8516H14.1609V24.8777C13.413 25.143 12.8195 25.7365 12.5542 26.4844H0.918701C0.433311 26.4844 0.0397949 26.8779 0.0397949 27.3633C0.0397949 27.8487 0.433311 28.2422 0.918701 28.2422H12.5542C12.9171 29.2652 13.894 30 15.0398 30C16.1856 30 17.1625 29.2652 17.5253 28.2422H29.1609C29.6463 28.2422 30.0398 27.8487 30.0398 27.3633C30.0398 26.8779 29.6463 26.4844 29.1609 26.4844ZM5.37183 2.63672C5.37183 2.15209 5.7661 1.75781 6.25073 1.75781H23.8289C24.3135 1.75781 24.7078 2.15209 24.7078 2.63672V6.15234C24.7078 6.63697 24.3135 7.03125 23.8289 7.03125H6.25073C5.7661 7.03125 5.37183 6.63697 5.37183 6.15234V2.63672ZM5.37183 9.66797C5.37183 9.18334 5.7661 8.78906 6.25073 8.78906H23.8289C24.3135 8.78906 24.7078 9.18334 24.7078 9.66797V13.1836C24.7078 13.6682 24.3135 14.0625 23.8289 14.0625H6.25073C5.7661 14.0625 5.37183 13.6682 5.37183 13.1836V9.66797ZM6.25073 21.0938C5.7661 21.0938 5.37183 20.6995 5.37183 20.2148V16.6992C5.37183 16.2146 5.7661 15.8203 6.25073 15.8203H23.8289C24.3135 15.8203 24.7078 16.2146 24.7078 16.6992V20.2148C24.7078 20.6995 24.3135 21.0938 23.8289 21.0938H6.25073ZM15.0398 28.2422C14.5552 28.2422 14.1609 27.8479 14.1609 27.3633C14.1609 26.8787 14.5552 26.4844 15.0398 26.4844C15.5244 26.4844 15.9187 26.8787 15.9187 27.3633C15.9187 27.8479 15.5244 28.2422 15.0398 28.2422Z" fill="#FF6C00"/>
</svg>
