<svg width="31" height="30" viewBox="0 0 31 30" fill="none" xmlns="http://www.w3.org/2000/svg">
<g clip-path="url(#clip0)">
<path d="M29.2062 5.33226C29.2043 5.33226 29.2025 5.33203 29.2007 5.33203H21.2319V4.45312C21.2319 2.99927 20.0491 1.81641 18.5952 1.81641H11.564C10.1101 1.81641 8.92725 2.99927 8.92725 4.45312V5.33203H0.958496C0.469147 5.33203 0.0795898 5.73303 0.0795898 6.21094V25.5469C0.0795898 27.0007 1.26245 28.1836 2.71631 28.1836H27.4429C28.8967 28.1836 30.0796 27.0007 30.0796 25.5469V6.22948C30.0796 6.22833 30.0796 6.22719 30.0796 6.22604C30.0459 5.6488 29.6909 5.33546 29.2062 5.33226ZM10.6851 4.45312C10.6851 3.96858 11.0794 3.57422 11.564 3.57422H18.5952C19.0798 3.57422 19.4741 3.96858 19.4741 4.45312V5.33203H10.6851V4.45312ZM27.9812 7.08984L25.2518 15.2779C25.1321 15.6374 24.797 15.8789 24.4182 15.8789H19.4741V15C19.4741 14.5145 19.0807 14.1211 18.5952 14.1211H11.564C11.0785 14.1211 10.6851 14.5145 10.6851 15V15.8789H5.74098C5.36218 15.8789 5.0271 15.6374 4.90739 15.2779L2.17798 7.08984H27.9812ZM17.7163 15.8789V17.6367H12.4429V15.8789H17.7163ZM28.3218 25.5469C28.3218 26.0314 27.9274 26.4258 27.4429 26.4258H2.71631C2.23177 26.4258 1.8374 26.0314 1.8374 25.5469V11.627L3.23976 15.8338C3.59911 16.9123 4.60435 17.6367 5.74098 17.6367H10.6851V18.5156C10.6851 19.0011 11.0785 19.3945 11.564 19.3945H18.5952C19.0807 19.3945 19.4741 19.0011 19.4741 18.5156V17.6367H24.4182C25.5548 17.6367 26.5601 16.9123 26.9194 15.8338L28.3218 11.627V25.5469Z" fill="#FF6C00"/>
</g>
<defs>
<clipPath id="clip0">
<rect width="30" height="30" fill="white" transform="translate(0.0795898)"/>
</clipPath>
</defs>
</svg>
