<svg width="30" height="29" viewBox="0 0 30 29" fill="none" xmlns="http://www.w3.org/2000/svg">
<path d="M20.7869 19.8898C21.894 19.7752 22.7339 18.8208 22.6957 17.6755C22.6575 16.5302 21.7031 15.614 20.5578 15.614H20.4815C19.298 15.6522 18.3818 16.6448 18.4199 17.8282C18.4581 18.4009 18.6872 18.8972 19.0308 19.2408C17.7328 21.7986 15.7476 23.6692 12.7698 25.2344C10.7465 26.3034 8.64679 26.6851 6.5471 26.4179C4.82916 26.1888 3.49299 25.4253 2.65311 24.1655C1.43147 22.2949 1.31694 20.2715 2.3477 18.2482C3.07305 16.7975 4.21834 15.7285 4.94369 15.1941C4.79099 14.6978 4.56193 13.8579 4.4474 13.2471C-1.08817 17.2556 -0.515524 22.6766 1.16423 25.2344C2.42405 27.1433 4.98187 28.3267 7.80692 28.3267C8.57044 28.3267 9.33397 28.2504 10.0975 28.0595C14.9841 27.1051 18.6872 24.2037 20.7869 19.8898Z" fill="#FF6C00"/>
<path d="M27.5057 15.1558C24.6043 11.7581 20.3286 9.88748 15.442 9.88748H14.8312C14.4876 9.2003 13.7623 8.74219 12.9606 8.74219H12.8842C11.7007 8.78036 10.7845 9.77295 10.8227 10.9564C10.8609 12.1017 11.8153 13.0179 12.9606 13.0179H13.0369C13.8768 12.9798 14.6021 12.4453 14.9076 11.7199H15.5947C18.4961 11.7199 21.2448 12.5598 23.7263 14.2014C25.6351 15.4612 27.0094 17.1028 27.773 19.088C28.422 20.6914 28.3838 22.2566 27.6966 23.5928C26.6277 25.6161 24.8334 26.7232 22.4665 26.7232C20.9394 26.7232 19.4887 26.2651 18.7252 25.9215C18.3052 26.3033 17.5417 26.9141 17.0072 27.2959C18.6488 28.0594 20.3286 28.4793 21.932 28.4793C25.5969 28.4793 28.3074 26.456 29.3382 24.4327C30.4453 22.2184 30.369 18.4008 27.5057 15.1558Z" fill="#FF6C00"/>
<path d="M8.11231 20.5389C8.15048 21.6842 9.10489 22.6004 10.2502 22.6004H10.3265C11.51 22.5622 12.4262 21.5696 12.3881 20.3862C12.3499 19.2409 11.3955 18.3246 10.2502 18.3246H10.1738C10.0975 18.3246 9.98295 18.3246 9.90659 18.3628C8.34136 15.7668 7.69237 12.9418 7.92142 9.88767C8.07413 7.59709 8.83766 5.61192 10.1738 3.97034C11.2809 2.55781 13.4188 1.87064 14.8695 1.83246C18.9162 1.75611 20.6341 6.79539 20.7487 8.81873C21.245 8.93326 22.0848 9.20049 22.6575 9.39138C22.1994 3.20681 18.3817 0 14.7168 0C11.2809 0 8.11231 2.48146 6.85249 6.14639C5.09638 11.033 6.24167 15.7286 8.37954 19.4317C8.18866 19.699 8.07413 20.1189 8.11231 20.5389Z" fill="#FF6C00"/>
</svg>
