<svg width="0" height="0" class="hidden">
  <symbol fill="none" xmlns="http://www.w3.org/2000/svg" viewBox="0 0 16 15" id="arrow-up">
    <path d="M8 1v14M8 1L.5 8.5M8 1l7.5 7.5" stroke="#F9F5F2"></path>
  </symbol>
  <symbol fill="none" xmlns="http://www.w3.org/2000/svg" viewBox="0 0 30 29" id="icon-1">
    <path d="M20.787 19.89a2.138 2.138 0 001.909-2.215 2.144 2.144 0 00-2.138-2.061h-.076a2.136 2.136 0 00-2.062 2.214c.038.573.267 1.07.61 1.413-1.297 2.558-3.282 4.428-6.26 5.993-2.024 1.07-4.123 1.451-6.223 1.184-1.718-.23-3.054-.993-3.894-2.252-1.222-1.871-1.336-3.895-.305-5.918.725-1.45 1.87-2.52 2.596-3.054a20.6 20.6 0 01-.497-1.947c-5.535 4.009-4.963 9.43-3.283 11.987 1.26 1.91 3.818 3.093 6.643 3.093.763 0 1.527-.077 2.29-.268 4.887-.954 8.59-3.855 10.69-8.17z" fill="#FF6C00"></path>
    <path d="M27.506 15.156c-2.902-3.398-7.177-5.269-12.064-5.269h-.61a2.098 2.098 0 00-1.871-1.145h-.077a2.136 2.136 0 00-2.061 2.214 2.144 2.144 0 002.138 2.062h.076a2.15 2.15 0 001.87-1.298h.688c2.901 0 5.65.84 8.131 2.481 1.91 1.26 3.283 2.902 4.047 4.887.649 1.603.61 3.169-.076 4.505-1.07 2.023-2.864 3.13-5.23 3.13-1.528 0-2.978-.458-3.742-.801a22.55 22.55 0 01-1.718 1.374c1.642.763 3.322 1.183 4.925 1.183 3.665 0 6.375-2.023 7.406-4.046 1.107-2.215 1.031-6.032-1.832-9.277z" fill="#FF6C00"></path>
    <path d="M8.112 20.539A2.144 2.144 0 0010.25 22.6h.076a2.136 2.136 0 002.062-2.214 2.145 2.145 0 00-2.138-2.061h-.076a.65.65 0 00-.267.038C8.34 15.767 7.692 12.942 7.92 9.888c.153-2.29.917-4.276 2.253-5.918 1.107-1.412 3.245-2.1 4.696-2.138 4.046-.076 5.764 4.963 5.879 6.987.496.114 1.336.381 1.909.572C22.198 3.207 18.381 0 14.716 0 11.28 0 8.112 2.481 6.852 6.146c-1.756 4.887-.61 9.583 1.528 13.286-.191.267-.306.687-.268 1.107z" fill="#FF6C00"></path>
  </symbol>
  <symbol fill="none" xmlns="http://www.w3.org/2000/svg" viewBox="0 0 31 30" id="icon-2">
    <path d="M29.16 26.484H17.526a2.65 2.65 0 00-1.606-1.606v-2.026h7.91a2.64 2.64 0 002.637-2.637v-3.516a2.63 2.63 0 00-.674-1.758 2.626 2.626 0 00.674-1.757V9.668c0-.675-.256-1.291-.674-1.758a2.626 2.626 0 00.674-1.758V2.637A2.64 2.64 0 0023.829 0H6.25a2.64 2.64 0 00-2.637 2.637v3.515c0 .675.255 1.291.674 1.758a2.626 2.626 0 00-.674 1.758v3.516c0 .674.255 1.29.674 1.757a2.626 2.626 0 00-.674 1.758v3.516a2.64 2.64 0 002.637 2.637h7.91v2.026a2.65 2.65 0 00-1.607 1.606H.92a.879.879 0 000 1.758h11.635A2.641 2.641 0 0015.04 30a2.64 2.64 0 002.485-1.758h11.636a.879.879 0 000-1.758zM5.373 2.637a.88.88 0 01.879-.88H23.83a.88.88 0 01.879.88v3.515a.88.88 0 01-.88.88H6.252a.88.88 0 01-.88-.88V2.637zm0 7.031a.88.88 0 01.879-.879H23.83a.88.88 0 01.879.879v3.516a.88.88 0 01-.88.879H6.252a.88.88 0 01-.88-.88V9.669zm.879 11.426a.88.88 0 01-.88-.88V16.7a.88.88 0 01.88-.879H23.83a.88.88 0 01.879.88v3.515a.88.88 0 01-.88.879H6.252zm8.789 7.148a.88.88 0 010-1.758.88.88 0 010 1.758z" fill="#FF6C00"></path>
  </symbol>
  <symbol fill="none" xmlns="http://www.w3.org/2000/svg" viewBox="0 0 31 30" id="icon-3">
    <g clip-path="url(#clip0)">
      <path d="M29.206 5.332h-7.975v-.879a2.64 2.64 0 00-2.636-2.637h-7.031a2.64 2.64 0 00-2.637 2.637v.879H.958a.881.881 0 00-.878.879v19.336a2.64 2.64 0 002.636 2.637h24.727a2.64 2.64 0 002.637-2.637V6.226c-.034-.577-.39-.89-.874-.894zm-18.52-.879a.88.88 0 01.878-.879h7.031a.88.88 0 01.88.88v.878h-8.79v-.879zM27.98 7.09l-2.73 8.188a.877.877 0 01-.833.6h-4.944V15a.879.879 0 00-.879-.879h-7.031a.879.879 0 00-.879.879v.879H5.741a.877.877 0 01-.834-.601L2.178 7.09h25.803zm-10.265 8.789v1.758h-5.273v-1.758h5.273zm10.606 9.668a.88.88 0 01-.88.879H2.717a.88.88 0 01-.879-.88V11.628l1.403 4.207a2.633 2.633 0 002.501 1.803h4.944v.879c0 .485.393.879.879.879h7.031a.879.879 0 00.88-.88v-.878h4.943a2.633 2.633 0 002.501-1.803l1.403-4.207v13.92z" fill="#FF6C00"></path>
    </g>
    <defs>
      <clipPath id="clip0">
        <path fill="#fff" transform="translate(.08)" d="M0 0h30v30H0z"></path>
      </clipPath>
    </defs>
  </symbol>
  <symbol fill="none" xmlns="http://www.w3.org/2000/svg" viewBox="0 0 30 30" id="icon-4">
    <path d="M29.573 8.621L15.453.126a.879.879 0 00-.906 0L.427 8.62a.879.879 0 10.906 1.506L15 1.905l13.667 8.222a.878.878 0 10.906-1.506z" fill="#FF6C00"></path>
    <path d="M27.245 21.502h-1.08v-6.316c0-.846-.687-1.535-1.533-1.535h-8.098c-.846 0-1.534.689-1.534 1.535v.743a6.91 6.91 0 00-1.592-.931 3.992 3.992 0 001.314-2.962 4.006 4.006 0 00-4.001-4 4.006 4.006 0 00-4.001 4c0 1.172.506 2.228 1.312 2.96A6.912 6.912 0 003.78 21.37v.133H2.755a.879.879 0 000 1.758h.761v5.861a.879.879 0 101.758 0v-5.86h19.452v5.858a.879.879 0 001.758 0v-5.86h.761a.879.879 0 000-1.758zM16.758 15.41h7.65v6.078h-7.65V15.41zM10.72 9.793a2.246 2.246 0 012.243 2.243 2.246 2.246 0 01-2.243 2.244 2.246 2.246 0 01-2.244-2.244 2.246 2.246 0 012.244-2.243zM5.538 21.37a5.15 5.15 0 015.144-5.144h.077A5.15 5.15 0 0115 18.465v3.037H5.538v-.133z" fill="#FF6C00"></path>
  </symbol>
  <symbol fill="none" xmlns="http://www.w3.org/2000/svg" viewBox="0 0 31 27" id="icon-5">
    <g clip-path="url(#clip0)" fill="#FF6C00">
      <path d="M15.04 16.02a2.674 2.674 0 100-5.348 2.674 2.674 0 000 5.348z"></path>
      <path fill-rule="evenodd" clip-rule="evenodd" d="M2.267 11.709c-.644.58-.908 1.135-.908 1.637s.264 1.056.908 1.637c.643.58 1.612 1.134 2.865 1.613 2.503.956 6.006 1.56 9.908 1.56 3.902 0 7.404-.604 9.907-1.56 1.254-.479 2.223-1.032 2.866-1.613.643-.581.907-1.136.907-1.637 0-.502-.264-1.056-.907-1.637s-1.612-1.135-2.866-1.614c-2.503-.955-6.005-1.56-9.907-1.56s-7.405.605-9.908 1.56c-1.253.48-2.222 1.033-2.865 1.614zm2.39-2.86C7.346 7.822 11.016 7.2 15.04 7.2c4.022 0 7.693.622 10.383 1.649 1.343.512 2.476 1.14 3.284 1.869.809.73 1.348 1.617 1.348 2.628 0 1.01-.54 1.898-1.348 2.627-.808.73-1.941 1.357-3.284 1.87-2.69 1.027-6.361 1.648-10.383 1.648-4.022 0-7.694-.621-10.384-1.648-1.342-.513-2.475-1.14-3.284-1.87-.808-.73-1.347-1.616-1.347-2.627 0-1.011.539-1.898 1.347-2.628.809-.73 1.942-1.357 3.284-1.87z"></path>
      <path fill-rule="evenodd" clip-rule="evenodd" d="M10.071 1.465c-.825-.267-1.437-.218-1.871.033-.435.251-.783.757-.964 1.604-.182.848-.177 1.964.035 3.289.424 2.645 1.651 5.981 3.602 9.36 1.951 3.38 4.227 6.11 6.306 7.8 1.041.846 2.005 1.408 2.83 1.675.825.267 1.437.218 1.871-.032.435-.251.783-.757.964-1.605.181-.848.177-1.963-.036-3.288-.423-2.646-1.65-5.981-3.602-9.36-1.95-3.38-4.226-6.11-6.305-7.8-1.041-.847-2.005-1.409-2.83-1.676zm3.672.64c2.234 1.816 4.608 4.685 6.619 8.168 2.011 3.483 3.309 6.973 3.764 9.817.228 1.419.251 2.713.023 3.778s-.726 1.976-1.602 2.481c-.875.506-1.913.482-2.95.147-1.036-.335-2.145-1.003-3.26-1.91-2.235-1.816-4.608-4.684-6.62-8.167-2.01-3.484-3.308-6.974-3.764-9.817-.227-1.42-.25-2.713-.023-3.779.228-1.065.727-1.975 1.602-2.48.876-.506 1.913-.483 2.95-.147 1.036.335 2.145 1.002 3.26 1.909z"></path>
      <path fill-rule="evenodd" clip-rule="evenodd" d="M22.844 3.102c-.181-.847-.53-1.353-.964-1.604-.434-.25-1.046-.3-1.871-.033s-1.789.83-2.83 1.675c-2.08 1.69-4.354 4.421-6.306 7.8-1.95 3.38-3.178 6.715-3.602 9.36-.212 1.326-.217 2.441-.035 3.29.18.847.529 1.352.964 1.603.434.251 1.046.3 1.871.033s1.789-.829 2.83-1.675c2.079-1.69 4.354-4.42 6.305-7.8 1.951-3.379 3.179-6.715 3.602-9.36.213-1.325.218-2.44.036-3.289zm1.282 3.5c-.455 2.843-1.753 6.333-3.764 9.817-2.011 3.483-4.385 6.351-6.62 8.168-1.115.906-2.224 1.574-3.26 1.909-1.037.335-2.074.359-2.95-.147-.875-.505-1.374-1.416-1.602-2.48-.227-1.066-.204-2.36.024-3.78.455-2.843 1.753-6.333 3.764-9.816 2.01-3.483 4.384-6.352 6.619-8.168 1.115-.907 2.224-1.574 3.26-1.91 1.037-.335 2.075-.358 2.95.147.876.506 1.374 1.416 1.602 2.481.228 1.065.205 2.36-.023 3.779z"></path>
    </g>
    <defs>
      <clipPath id="clip0">
        <path fill="#fff" transform="translate(.04)" d="M0 0h30v26.692H0z"></path>
      </clipPath>
    </defs>
  </symbol>
  <symbol fill="none" xmlns="http://www.w3.org/2000/svg" viewBox="0 0 31 30" id="icon-6">
    <rect x=".83" y=".75" width="28.5" height="28.5" rx="3.25" stroke="#FF6C00" stroke-width="1.5"></rect>
    <path d="M5.68 14.06v1.215h3.877v11.1h2.768v-11.1h3.9v-1.2c0-.675 0-1.223-.03-1.238 0-.022-2.378-.03-5.265-.03l-5.25.023v1.23zm17.505-1.26c.765.18 1.35.525 1.875 1.072.277.3.69.825.72.96 0 .045-1.298.923-2.085 1.41-.03.023-.15-.105-.27-.3-.39-.555-.788-.795-1.41-.84-.9-.06-1.5.413-1.5 1.2 0 .24.045.375.135.57.202.413.577.66 1.74 1.17 2.145.923 3.075 1.53 3.637 2.4.638.975.78 2.505.353 3.653-.48 1.252-1.65 2.1-3.323 2.377-.525.09-1.725.075-2.287-.022-1.2-.225-2.348-.825-3.053-1.598-.277-.3-.81-1.102-.78-1.155l.285-.18 1.125-.652.848-.495.195.262c.247.39.802.915 1.125 1.095.975.503 2.28.435 2.925-.15.277-.255.397-.525.397-.9 0-.345-.052-.502-.225-.765-.24-.33-.72-.6-2.07-1.2-1.552-.66-2.212-1.08-2.827-1.725-.353-.39-.675-.997-.825-1.5-.113-.435-.15-1.5-.045-1.927.322-1.5 1.455-2.55 3.075-2.85.525-.105 1.762-.06 2.28.075l-.015.015z" stroke="#FF6C00" stroke-width="1.5"></path>
  </symbol>
  <symbol fill="none" xmlns="http://www.w3.org/2000/svg" viewBox="0 0 21 21" id="list">
    <g clip-path="url(#clip0)" fill="#F9F5F2">
      <path d="M16.279 3.034h-1.79v-.81c0-.261-.283-.38-.542-.38h-1.39C12.227.89 11.403.415 10.46.415a2.144 2.144 0 00-2.096 1.429H6.998c-.26 0-.518.119-.518.38v.81H4.69a2.012 2.012 0 00-1.98 1.928v13.642c0 1.048.943 1.81 1.98 1.81h11.589c1.036 0 1.978-.762 1.978-1.81V4.962a2.012 2.012 0 00-1.978-1.928zm-8.857-.238h1.295a.52.52 0 00.448-.429 1.37 1.37 0 011.295-1.071 1.346 1.346 0 011.272 1.071.52.52 0 00.472.429h1.342V4.7H7.422V2.796zm9.893 15.808c0 .524-.518.857-1.036.857H4.689c-.518 0-1.036-.333-1.036-.857V4.962a1.065 1.065 0 011.036-.976h1.79V5.2a.496.496 0 00.519.453h6.949a.52.52 0 00.541-.453V3.986h1.79c.542.01.989.431 1.037.976v13.642z"></path>
      <path d="M8.67 11.057a.468.468 0 00-.66-.024l-1.507 1.453-.636-.667a.467.467 0 00-.66-.024.504.504 0 000 .69l.966 1a.422.422 0 00.33.143.468.468 0 00.33-.143l1.837-1.761a.456.456 0 000-.667zm6.76 1.024h-5.417a.474.474 0 00-.471.476c0 .263.21.476.47.476h5.419c.26 0 .47-.213.47-.476a.474.474 0 00-.47-.476zM8.67 7.248a.468.468 0 00-.66-.024L6.504 8.677l-.636-.667a.468.468 0 00-.66-.024.504.504 0 000 .69l.966 1a.422.422 0 00.33.143.469.469 0 00.33-.143L8.67 7.915a.456.456 0 000-.667zm6.76 1.023h-5.417a.474.474 0 00-.471.477c0 .263.21.476.47.476h5.419c.26 0 .47-.213.47-.476a.474.474 0 00-.47-.477zm-6.76 6.595a.468.468 0 00-.66-.024l-1.507 1.453-.636-.667a.468.468 0 00-.66-.024.504.504 0 000 .69l.966 1a.422.422 0 00.33.143.469.469 0 00.33-.142l1.837-1.762a.456.456 0 000-.667zm6.76 1.024h-5.417a.474.474 0 00-.471.476c0 .263.21.476.47.476h5.419c.26 0 .47-.213.47-.476a.474.474 0 00-.47-.476z"></path>
    </g>
    <defs>
      <clipPath id="clip0">
        <path fill="#fff" transform="translate(.59 .414)" d="M0 0h19.788v20H0z"></path>
      </clipPath>
    </defs>
  </symbol>
  <symbol fill="none" xmlns="http://www.w3.org/2000/svg" viewBox="0 0 14 14" id="plus">
    <path d="M7 0v14M0 7h14" stroke="#F9F5F2"></path>
  </symbol>
  <symbol fill="none" xmlns="http://www.w3.org/2000/svg" viewBox="0 0 30 31" id="time">
    <path d="M13.101 9.646l-2.344 2.296-1.354-1.354a.703.703 0 00-.994.995l1.846 1.845a.703.703 0 00.989.006l2.842-2.784a.703.703 0 00-.985-1.004z" fill="#1C1B1B"></path>
    <path d="M29.609 21.614l-7.97-9.831a.702.702 0 00-.407-.246 10.548 10.548 0 00-10.45-9.123C4.965 2.414.233 7.144.233 12.96c0 5.816 4.732 10.547 10.547 10.547 1.87.003 3.705-.493 5.318-1.437l5.135 6.333a.703.703 0 00.989.104l7.282-5.904a.703.703 0 00.104-.99zM10.78 22.1c-5.04 0-9.14-4.1-9.14-9.14 0-5.04 4.1-9.141 9.14-9.141 4.51 0 8.337 3.33 9.029 7.71l-1.425.01a7.736 7.736 0 00-7.604-6.314c-4.265 0-7.734 3.47-7.734 7.734 0 4.265 3.47 7.735 7.734 7.735 1.223 0 2.429-.29 3.518-.846l.902 1.113a9.099 9.099 0 01-4.42 1.14zm2.342-4.122a.702.702 0 00.14.593l.126.155a6.308 6.308 0 01-1.905.522v-1.132a.703.703 0 00-1.406 0v1.132a6.34 6.34 0 01-5.586-5.585h1.133a.703.703 0 000-1.407H4.492a6.34 6.34 0 015.586-5.585v1.132a.703.703 0 001.406 0V6.671a6.3 6.3 0 015.468 4.878l-1.867.012a.703.703 0 00-.683.553l-1.28 5.865zm8.76 8.992l-7.312-9.02 1.087-4.985 5.103-.034 7.314 9.023-6.19 5.018z" fill="#1C1B1B"></path>
    <path d="M19.937 17.084l-.148-.182a.703.703 0 10-1.092.886l.152.188a2.11 2.11 0 002.788 3.16l.774-.627a.703.703 0 01.99.104l.036.045a.704.704 0 01-.103.989l-1.148.93a.206.206 0 01-.291-.033l-.038-.048a.702.702 0 10-1.107.866l.037.048a1.6 1.6 0 001.274.62c.368 0 .726-.127 1.011-.36l.237-.193.148.182a.704.704 0 001.092-.885l-.156-.193a2.113 2.113 0 00.136-2.809l-.036-.045a2.11 2.11 0 00-2.967-.31l-.774.627a.703.703 0 11-.886-1.092l.41-.332.72-.583a.207.207 0 01.233-.018.204.204 0 01.06.055.704.704 0 001.13-.838 1.613 1.613 0 00-2.31-.292l-.172.14zm-1.644-1.985a.703.703 0 10-1.093.885.703.703 0 001.093-.885z" fill="#1C1B1B"></path>
  </symbol>
</svg>