<svg width="30" height="31" viewBox="0 0 30 31" fill="none" xmlns="http://www.w3.org/2000/svg">
<path d="M13.1015 9.64564L10.7568 11.942L9.40328 10.5885C9.27105 10.4584 9.09278 10.3858 8.90729 10.3866C8.72181 10.3873 8.54413 10.4613 8.41297 10.5925C8.28181 10.7237 8.20779 10.9013 8.20704 11.0868C8.20628 11.2723 8.27885 11.4506 8.40894 11.5828L10.2546 13.4285C10.3856 13.5595 10.563 13.6335 10.7482 13.6344C10.9334 13.6354 11.1115 13.5633 11.2438 13.4337L14.0856 10.6505C14.1516 10.5858 14.2042 10.5089 14.2404 10.4239C14.2767 10.339 14.2958 10.2477 14.2968 10.1554C14.2977 10.063 14.2805 9.97141 14.246 9.88573C14.2116 9.80004 14.1606 9.72198 14.096 9.65601C14.0314 9.59003 13.9544 9.53742 13.8695 9.5012C13.7845 9.46497 13.6933 9.44583 13.6009 9.44486C13.5086 9.4439 13.4169 9.46113 13.3313 9.49558C13.2456 9.53003 13.1675 9.58102 13.1015 9.64564Z" fill="#1C1B1B"/>
<path d="M29.6087 21.6139L21.6387 11.7827C21.5358 11.6561 21.392 11.5692 21.2321 11.5371C20.8877 9.00978 19.6391 6.69288 17.7176 5.01544C15.7962 3.338 13.3319 2.41365 10.7812 2.41357C4.9657 2.41357 0.234375 7.1449 0.234375 12.9604C0.234375 18.776 4.9657 23.5073 10.7812 23.5073C12.6503 23.5101 14.4862 23.0138 16.0993 22.0697L21.2338 28.4032C21.3512 28.5481 21.5214 28.6403 21.7069 28.6597C21.8923 28.6791 22.0779 28.624 22.2227 28.5066L29.5053 22.6028C29.6501 22.4854 29.7424 22.3152 29.7618 22.1297C29.7812 21.9443 29.7261 21.7587 29.6087 21.6139ZM10.7812 22.1011C5.74107 22.1011 1.64062 18.0006 1.64062 12.9604C1.64062 7.92027 5.74107 3.81982 10.7812 3.81982C15.2901 3.81982 19.1182 7.15035 19.8096 11.5304L18.3848 11.5396C18.0529 9.7655 17.1112 8.16331 15.7226 7.01035C14.3341 5.85738 12.5861 5.22621 10.7812 5.22607C6.5165 5.22607 3.04688 8.6957 3.04688 12.9604C3.04688 17.2252 6.5165 20.6948 10.7812 20.6948C12.0042 20.6953 13.2098 20.4053 14.2988 19.8487L15.2012 20.962C13.8486 21.7111 12.3274 22.1031 10.7812 22.1011ZM13.1228 17.9791C13.1003 18.0821 13.1012 18.1888 13.1256 18.2915C13.1499 18.3941 13.197 18.4899 13.2634 18.5718L13.389 18.7267C12.7855 18.9997 12.1427 19.176 11.4844 19.249V18.1167C11.4844 17.9302 11.4103 17.7514 11.2784 17.6195C11.1466 17.4877 10.9677 17.4136 10.7812 17.4136C10.5948 17.4136 10.4159 17.4877 10.2841 17.6195C10.1522 17.7514 10.0781 17.9302 10.0781 18.1167V19.2493C8.65237 19.0878 7.32358 18.4473 6.30897 17.4327C5.29436 16.4181 4.65393 15.0893 4.49238 13.6636H5.625C5.81148 13.6636 5.99032 13.5895 6.12218 13.4576C6.25405 13.3258 6.32812 13.1469 6.32812 12.9604C6.32812 12.774 6.25405 12.5951 6.12218 12.4633C5.99032 12.3314 5.81148 12.2573 5.625 12.2573H4.49238C4.65393 10.8316 5.29436 9.50278 6.30897 8.48817C7.32358 7.47356 8.65237 6.83313 10.0781 6.67158V7.8042C10.0781 7.99068 10.1522 8.16952 10.2841 8.30138C10.4159 8.43325 10.5948 8.50732 10.7812 8.50732C10.9677 8.50732 11.1466 8.43325 11.2784 8.30138C11.4103 8.16952 11.4844 7.99068 11.4844 7.8042V6.67094C12.7907 6.81224 14.0201 7.35845 15.0005 8.23311C15.981 9.10778 16.6634 10.2671 16.9523 11.5489L15.0849 11.5609C14.9252 11.562 14.7707 11.6173 14.6467 11.7179C14.5227 11.8184 14.4366 11.9582 14.4025 12.1142L13.1228 17.9791ZM21.8834 26.9714L14.5688 17.9488L15.6565 12.9636L20.7589 12.9304L28.0735 21.9532L21.8834 26.9714Z" fill="#1C1B1B"/>
<path d="M19.9368 17.0841L19.7892 16.9021C19.6717 16.7572 19.5016 16.6649 19.3161 16.6455C19.1306 16.6261 18.945 16.6812 18.8002 16.7986C18.6553 16.9161 18.563 17.0862 18.5436 17.2717C18.5242 17.4572 18.5793 17.6428 18.6968 17.7876L18.8491 17.9758C18.4565 18.3525 18.2246 18.8664 18.202 19.4101C18.1794 19.9537 18.3678 20.485 18.7277 20.8931C19.0877 21.3011 19.5915 21.5542 20.1337 21.5995C20.6759 21.6448 21.2146 21.4788 21.6373 21.1362L22.4112 20.5089C22.4829 20.4507 22.5655 20.4072 22.654 20.3809C22.7426 20.3546 22.8355 20.3461 22.9274 20.3557C23.0192 20.3654 23.1083 20.393 23.1895 20.4371C23.2707 20.4812 23.3424 20.5408 23.4005 20.6126L23.4372 20.6579C23.5544 20.8028 23.6094 20.9883 23.59 21.1737C23.5706 21.3591 23.4785 21.5293 23.3339 21.6469L22.1864 22.5771C22.1651 22.5943 22.1407 22.6071 22.1145 22.6147C22.0883 22.6224 22.0608 22.6247 22.0337 22.6216C22.0066 22.6185 21.9803 22.61 21.9565 22.5967C21.9327 22.5833 21.9118 22.5653 21.895 22.5438L21.8574 22.4958C21.8009 22.4222 21.7303 22.3606 21.6498 22.3144C21.5692 22.2682 21.4804 22.2384 21.3883 22.2267C21.2962 22.215 21.2027 22.2217 21.1132 22.2464C21.0237 22.271 20.94 22.3131 20.8669 22.3703C20.7938 22.4275 20.7327 22.4985 20.6871 22.5794C20.6416 22.6603 20.6126 22.7494 20.6017 22.8416C20.5907 22.9338 20.5982 23.0272 20.6236 23.1165C20.649 23.2058 20.6918 23.2892 20.7495 23.3618L20.7869 23.4096C20.9182 23.5789 21.0822 23.72 21.2691 23.8247C21.456 23.9294 21.662 23.9954 21.8749 24.019C21.9366 24.026 21.9986 24.0296 22.0606 24.0296C22.4292 24.0298 22.7865 23.9026 23.072 23.6696L23.3091 23.4774L23.4567 23.6594C23.5744 23.8036 23.7444 23.8953 23.9295 23.9144C24.1146 23.9334 24.2998 23.8783 24.4443 23.7611C24.5889 23.6439 24.6811 23.4742 24.7007 23.2891C24.7204 23.1041 24.6658 22.9188 24.5491 22.7739L24.3931 22.5815C24.7567 22.2116 24.9716 21.7209 24.9967 21.2029C25.0219 20.6848 24.8556 20.1756 24.5295 19.7722L24.4928 19.7269C24.3183 19.5117 24.1032 19.333 23.8597 19.201C23.6162 19.0689 23.3491 18.9861 23.0736 18.9573C22.798 18.9285 22.5196 18.9543 22.254 19.0331C21.9884 19.1119 21.741 19.2423 21.5258 19.4167L20.752 20.044C20.6071 20.1615 20.4215 20.2165 20.2361 20.1971C20.0506 20.1777 19.8804 20.0854 19.763 19.9406C19.6456 19.7957 19.5905 19.6101 19.6099 19.4247C19.6293 19.2392 19.7216 19.069 19.8665 18.9516L20.2757 18.6198H20.2761L20.9954 18.0367C21.017 18.0192 21.0418 18.0063 21.0685 17.9986C21.0952 17.991 21.1231 17.9889 21.1506 17.9924C21.1782 17.9958 21.2047 18.0049 21.2286 18.0189C21.2526 18.0329 21.2734 18.0516 21.2899 18.0739C21.401 18.2236 21.5671 18.3231 21.7516 18.3505C21.9361 18.3778 22.1238 18.3308 22.2736 18.2197C22.4234 18.1085 22.5229 17.9425 22.5502 17.758C22.5776 17.5735 22.5305 17.3858 22.4194 17.236C22.2898 17.0613 22.1262 16.9147 21.9385 16.8049C21.7507 16.6951 21.5427 16.6244 21.3269 16.5972C21.1112 16.5699 20.8921 16.5866 20.6829 16.6462C20.4738 16.7059 20.2789 16.8072 20.1099 16.9442L19.9368 17.0841Z" fill="#1C1B1B"/>
<path d="M18.2925 15.0987C18.205 14.9907 18.0873 14.9111 17.9545 14.8699C17.8217 14.8287 17.6796 14.8279 17.5463 14.8674C17.413 14.907 17.2944 14.9852 17.2055 15.0922C17.1166 15.1991 17.0615 15.3301 17.047 15.4684C17.0326 15.6067 17.0594 15.7462 17.1243 15.8692C17.1891 15.9923 17.2889 16.0933 17.4112 16.1596C17.5334 16.2259 17.6726 16.2544 17.8111 16.2416C17.9495 16.2288 18.0811 16.1753 18.1891 16.0877C18.334 15.9703 18.4262 15.8001 18.4456 15.6146C18.465 15.4292 18.41 15.2436 18.2925 15.0987Z" fill="#1C1B1B"/>
</svg>
